<?xml version="1.0" encoding="utf-8"?>
<!-- Generator: Adobe Illustrator 24.1.2, SVG Export Plug-In . SVG Version: 6.00 Build 0)  -->
<svg version="1.1" id="Layer_1" xmlns="http://www.w3.org/2000/svg" xmlns:xlink="http://www.w3.org/1999/xlink" x="0px" y="0px"
	 viewBox="0 0 1200 936.3" style="enable-background:new 0 0 1200 936.3;" xml:space="preserve">
<style type="text/css">
	.st0{fill:#AE0010;stroke:#000000;stroke-width:10;stroke-linecap:round;stroke-linejoin:round;stroke-miterlimit:10;}
	.st1{fill:none;stroke:#000000;stroke-width:10;stroke-linecap:round;stroke-linejoin:round;stroke-miterlimit:10;}
	.st2{clip-path:url(#SVGID_2_);}
	.st3{clip-path:url(#SVGID_4_);}
	.st4{fill:#450B82;}
	.st5{fill:#53258E;}
	.st6{fill:#694FA2;}
	.st7{fill:#7B74B5;}
	.st8{fill:#908DC2;}
	.st9{fill:none;}
	.st10{fill:#AE0010;}
</style>
<g>
	<g>
		<g id="XMLID_1_">
			<g>
				<g>
					<polygon class="st0" points="1171.3,280.8 1171.3,404.1 962.5,579.7 958.8,495.2 1063.4,389.7 					"/>
					<polygon class="st0" points="1171.3,280.8 1063.4,389.7 1061.5,387.8 658.7,285.9 652.4,167.4 					"/>
					<polygon class="st0" points="1063.4,389.7 958.8,495.2 962.5,579.7 510.8,434.5 658.7,285.9 1061.5,387.8 					"/>
					<polygon class="st0" points="962.5,579.7 664.1,696.5 131.9,473.1 510.8,434.5 					"/>
					<polyline class="st0" points="140.1,638 131.9,473.1 664.1,696.5 664.1,912.4 					"/>
					<polygon class="st0" points="652.4,167.4 658.7,285.9 510.8,434.5 508.8,364.5 					"/>
				</g>
			</g>
		</g>
	</g>
	<line class="st1" x1="140.1" y1="638" x2="664.1" y2="912.4"/>
</g>
<g>
	<g>
		<defs>
			<rect id="SVGID_1_" x="52.5" y="43.6" width="850" height="755.8"/>
		</defs>
		<clipPath id="SVGID_2_">
			<use xlink:href="#SVGID_1_"  style="overflow:visible;"/>
		</clipPath>
		<g class="st2">
			<g>
				<defs>
					<rect id="SVGID_3_" x="52.5" y="41.7" width="851.6" height="757.7"/>
				</defs>
				<clipPath id="SVGID_4_">
					<use xlink:href="#SVGID_3_"  style="overflow:visible;"/>
				</clipPath>
				<g class="st3">
					
						<image style="overflow:visible;enable-background:new    ;" width="249" height="221" xlink:href="883AF8D439029AA9.png"  transform="matrix(3.4238 0 0 3.4238 52.0387 42.2128)">
					</image>
				</g>
			</g>
		</g>
	</g>
</g>
<path class="st4" d="M250.8,141.8c7.9,0,15.4,3.1,21,8.7c5.6,5.6,8.7,13.1,8.7,21s-3.1,15.4-8.7,21s-13.1,8.7-21,8.7
	s-15.4-3.1-21-8.7s-8.7-13.1-8.7-21s3.1-15.4,8.7-21C235.3,144.9,242.9,141.8,250.8,141.8z"/>
<path class="st4" d="M460.9,476.5c7.8,0,15.3,3.1,20.8,8.6s8.6,13,8.6,20.8c0,7.8-3.1,15.3-8.6,20.8s-13,8.6-20.8,8.6
	s-15.3-3.1-20.8-8.6s-8.6-13-8.6-20.8s3.1-15.3,8.6-20.8C445.7,479.6,453.2,476.5,460.9,476.5z"/>
<path class="st4" d="M267.3,458.9c8.1,0,15.8,3.2,21.5,8.9c5.7,5.7,8.9,13.4,8.9,21.5s-3.2,15.8-8.9,21.5
	c-5.7,5.7-13.4,8.9-21.5,8.9s-15.8-3.2-21.5-8.9c-5.7-5.7-8.9-13.4-8.9-21.5s3.2-15.8,8.9-21.5C251.6,462.1,259.3,458.9,267.3,458.9
	z"/>
<path class="st4" d="M256,397.8c8.1,0,15.8,3.2,21.5,8.9c5.7,5.7,8.9,13.5,8.9,21.5s-3.2,15.8-8.9,21.5c-5.7,5.7-13.5,8.9-21.5,8.9
	c-8.1,0-15.8-3.2-21.5-8.9c-5.7-5.7-8.9-13.5-8.9-21.5s3.2-15.8,8.9-21.5C240.1,401,247.9,397.8,256,397.8z"/>
<path class="st4" d="M363.6,51.3c8,0,15.6,3.2,21.3,8.8c5.6,5.6,8.8,13.3,8.8,21.3s-3.2,15.6-8.8,21.3c-5.6,5.6-13.3,8.8-21.3,8.8
	s-15.6-3.2-21.3-8.8c-5.6-5.6-8.8-13.3-8.8-21.3s3.2-15.6,8.8-21.3C348,54.5,355.6,51.3,363.6,51.3z"/>
<path class="st4" d="M646.3,303.5c8.1,0,15.9,3.2,21.6,8.9c5.7,5.7,8.9,13.5,8.9,21.6s-3.2,15.9-8.9,21.6s-13.5,8.9-21.6,8.9
	s-15.9-3.2-21.6-8.9c-5.7-5.7-8.9-13.5-8.9-21.6s3.2-15.9,8.9-21.6C630.4,306.7,638.2,303.5,646.3,303.5z"/>
<path class="st4" d="M411.3,165.3c8.2,0,16.1,3.3,21.9,9.1s9.1,13.7,9.1,21.9s-3.3,16.1-9.1,21.9c-5.8,5.8-13.7,9.1-21.9,9.1
	c-8.2,0-16.1-3.3-21.9-9.1s-9.1-13.7-9.1-21.9s3.3-16.1,9.1-21.9C395.1,168.6,403,165.3,411.3,165.3z"/>
<path class="st4" d="M440.2,221.4c7.9,0,15.5,3.1,21.1,8.7c5.6,5.6,8.7,13.2,8.7,21.1s-3.1,15.5-8.7,21.1
	c-5.6,5.6-13.2,8.7-21.1,8.7s-15.5-3.1-21.1-8.7s-8.7-13.2-8.7-21.1s3.1-15.5,8.7-21.1C424.8,224.6,432.3,221.4,440.2,221.4z"/>
<path class="st4" d="M542.7,479.9c7.7,0,15.1,3.1,20.6,8.5c5.5,5.5,8.5,12.9,8.5,20.6s-3.1,15.1-8.5,20.6
	c-5.5,5.5-12.9,8.5-20.6,8.5s-15.1-3.1-20.6-8.5c-5.5-5.5-8.5-12.9-8.5-20.6s3.1-15.1,8.5-20.6C527.6,482.9,535,479.9,542.7,479.9z"
	/>
<path class="st4" d="M817.1,594.4c7.8,0,15.3,3.1,20.9,8.7c5.5,5.5,8.7,13.1,8.7,20.9s-3.1,15.3-8.7,20.9
	c-5.5,5.5-13.1,8.6-20.9,8.6c-7.8,0-15.3-3.1-20.9-8.6c-5.5-5.5-8.7-13.1-8.7-20.9s3.1-15.3,8.7-20.9S809.3,594.4,817.1,594.4z"/>
<path class="st4" d="M668,479.7c8.1,0,15.8,3.2,21.5,8.9c5.7,5.7,8.9,13.4,8.9,21.5s-3.2,15.8-8.9,21.5c-5.7,5.7-13.4,8.9-21.5,8.9
	s-15.8-3.2-21.5-8.9s-8.9-13.4-8.9-21.5c0-8.1,3.2-15.8,8.9-21.5C652.2,482.9,660,479.7,668,479.7z"/>
<path class="st4" d="M753.9,555.2c8.1,0,15.8,3.2,21.5,8.9s8.9,13.4,8.9,21.5s-3.2,15.8-8.9,21.5S762,616,753.9,616
	s-15.8-3.2-21.5-8.9s-8.9-13.4-8.9-21.5s3.2-15.8,8.9-21.5C738.2,558.4,745.9,555.2,753.9,555.2z"/>
<path class="st4" d="M194.9,423.4c8.2,0,16,3.2,21.8,9s9,13.6,9,21.8c0,8.2-3.2,16-9,21.8s-13.6,9-21.8,9s-16-3.2-21.8-9
	s-9-13.6-9-21.8c0-8.2,3.2-16,9-21.8S186.7,423.4,194.9,423.4z"/>
<path class="st4" d="M372.9,515c8.3,0,16.2,3.3,22.1,9.2s9.2,13.8,9.2,22.1s-3.3,16.2-9.2,22.1s-13.8,9.2-22.1,9.2
	c-8.3,0-16.2-3.3-22.1-9.2s-9.2-13.8-9.2-22.1s3.3-16.2,9.2-22.1C356.7,518.3,364.7,515,372.9,515z"/>
<path class="st4" d="M301.5,233.6c8.2,0,16.1,3.3,21.9,9.1s9.1,13.7,9.1,21.9c0,8.2-3.3,16.1-9.1,21.9c-5.8,5.8-13.7,9.1-21.9,9.1
	s-16.1-3.3-21.9-9.1c-5.8-5.8-9.1-13.7-9.1-21.9c0-8.2,3.3-16.1,9.1-21.9C285.4,236.9,293.3,233.6,301.5,233.6z"/>
<path class="st4" d="M610,581.7c8.2,0,16,3.2,21.8,9s9,13.6,9,21.8s-3.2,16-9,21.8s-13.6,9-21.8,9s-16-3.2-21.8-9s-9-13.6-9-21.8
	s3.2-16,9-21.8S601.9,581.7,610,581.7z"/>
<path class="st4" d="M379.2,112.6c8.2,0,16.1,3.3,21.9,9.1c5.8,5.8,9.1,13.7,9.1,21.9s-3.3,16.1-9.1,21.9
	c-5.8,5.8-13.7,9.1-21.9,9.1c-8.2,0-16.1-3.3-21.9-9.1s-9.1-13.7-9.1-21.9s3.3-16.1,9.1-21.9C363.1,115.8,371,112.6,379.2,112.6z"/>
<path class="st4" d="M767.4,670.9c8.4,0,16.5,3.3,22.4,9.3s9.3,14,9.3,22.4s-3.3,16.5-9.3,22.4s-14,9.3-22.4,9.3S750.9,731,745,725
	s-9.3-14-9.3-22.4s3.3-16.5,9.3-22.4S759,670.9,767.4,670.9z"/>
<path class="st4" d="M459.9,107.4c8.5,0,16.6,3.4,22.6,9.4s9.4,14.1,9.4,22.6s-3.4,16.6-9.4,22.6s-14.1,9.4-22.6,9.4
	s-16.6-3.4-22.6-9.4s-9.4-14.1-9.4-22.6s3.4-16.6,9.4-22.6C443.3,110.8,451.4,107.4,459.9,107.4z"/>
<path class="st4" d="M156.6,301.8c8.6,0,16.8,3.4,22.8,9.5c6.1,6.1,9.5,14.3,9.5,22.8c0,8.6-3.4,16.8-9.5,22.8
	c-6.1,6.1-14.3,9.5-22.8,9.5s-16.8-3.4-22.8-9.5c-6.1-6.1-9.5-14.3-9.5-22.8c0-8.6,3.4-16.8,9.5-22.8
	C139.8,305.2,148,301.8,156.6,301.8z"/>
<path class="st4" d="M417.5,289.1c8.4,0,16.4,3.3,22.3,9.2c5.9,5.9,9.2,13.9,9.2,22.3s-3.3,16.4-9.2,22.3
	c-5.9,5.9-13.9,9.2-22.3,9.2s-16.4-3.3-22.3-9.2c-5.9-5.9-9.2-13.9-9.2-22.3s3.3-16.4,9.2-22.3S409.1,289.1,417.5,289.1z"/>
<path class="st4" d="M626.6,362.4c8.4,0,16.4,3.3,22.4,9.3c5.9,5.9,9.3,14,9.3,22.4s-3.3,16.4-9.3,22.4c-5.9,5.9-14,9.3-22.4,9.3
	s-16.4-3.3-22.4-9.3c-5.9-5.9-9.3-14-9.3-22.4s3.3-16.4,9.3-22.4C610.2,365.8,618.2,362.4,626.6,362.4z"/>
<path class="st4" d="M313.9,100.2c8.5,0,16.6,3.4,22.6,9.4s9.4,14.1,9.4,22.6s-3.4,16.6-9.4,22.6s-14.1,9.4-22.6,9.4
	s-16.6-3.4-22.6-9.4s-9.4-14.1-9.4-22.6s3.4-16.6,9.4-22.6S305.5,100.2,313.9,100.2z"/>
<path class="st4" d="M126.5,412.8c8.5,0,16.6,3.4,22.6,9.4s9.4,14.1,9.4,22.6s-3.4,16.6-9.4,22.6s-14.1,9.4-22.6,9.4
	s-16.6-3.4-22.6-9.4s-9.4-14.1-9.4-22.6s3.4-16.6,9.4-22.6C109.9,416.2,118.1,412.8,126.5,412.8z"/>
<path class="st4" d="M701.1,254c8.9,0,17.4,3.5,23.7,9.8s9.8,14.8,9.8,23.7c0,8.9-3.5,17.4-9.8,23.7c-6.3,6.3-14.8,9.8-23.7,9.8
	s-17.4-3.5-23.7-9.8s-9.8-14.8-9.8-23.7c0-8.9,3.5-17.4,9.8-23.7C683.8,257.5,692.3,254,701.1,254z"/>
<path class="st4" d="M202.1,179.6c8.8,0,17.3,3.5,23.6,9.8c6.2,6.2,9.8,14.7,9.8,23.6c0,8.8-3.5,17.3-9.8,23.6
	c-6.2,6.2-14.7,9.8-23.6,9.8c-8.8,0-17.3-3.5-23.6-9.8c-6.2-6.2-9.8-14.7-9.8-23.6c0-8.8,3.5-17.3,9.8-23.6S193.3,179.6,202.1,179.6
	z"/>
<path class="st4" d="M522,272.6c8.1,0,15.8,3.2,21.5,8.9c5.7,5.7,8.9,13.4,8.9,21.5s-3.2,15.8-8.9,21.5s-13.4,8.9-21.5,8.9
	s-15.8-3.2-21.5-8.9c-5.7-5.7-8.9-13.4-8.9-21.5s3.2-15.8,8.9-21.5C506.2,275.8,514,272.6,522,272.6z"/>
<path class="st4" d="M306.7,506c7.9,0,15.6,3.2,21.2,8.8s8.8,13.2,8.8,21.2s-3.2,15.6-8.8,21.2c-5.6,5.6-13.2,8.8-21.2,8.8
	c-7.9,0-15.6-3.2-21.2-8.8s-8.8-13.2-8.8-21.2s3.2-15.6,8.8-21.2C291.1,509.1,298.7,506,306.7,506z"/>
<path class="st4" d="M498.2,526.3c7.2,0,14.2,2.9,19.3,8s8,12,8,19.3c0,7.2-2.9,14.2-8,19.3s-12,8-19.3,8c-7.2,0-14.2-2.9-19.3-8
	c-5.1-5.1-8-12-8-19.3c0-7.2,2.9-14.2,8-19.3C484.1,529.2,491,526.3,498.2,526.3z"/>
<path class="st4" d="M588.3,531.1c7,0,13.8,2.8,18.8,7.8s7.8,11.7,7.8,18.8c0,7-2.8,13.8-7.8,18.8s-11.7,7.8-18.8,7.8
	c-7,0-13.8-2.8-18.8-7.8s-7.8-11.7-7.8-18.8c0-7,2.8-13.8,7.8-18.8C574.5,533.9,581.2,531.1,588.3,531.1z"/>
<path class="st4" d="M425.7,58.1c7,0,13.7,2.8,18.7,7.7c5,5,7.7,11.7,7.7,18.7c0,7-2.8,13.7-7.7,18.7c-5,5-11.7,7.7-18.7,7.7
	s-13.7-2.8-18.7-7.7c-5-5-7.7-11.7-7.7-18.7s2.8-13.7,7.7-18.7C412,60.9,418.7,58.1,425.7,58.1z"/>
<path class="st4" d="M762.2,616.5c6.9,0,13.6,2.7,18.4,7.6c4.9,4.9,7.6,11.5,7.6,18.4s-2.7,13.6-7.6,18.4
	c-4.9,4.9-11.5,7.6-18.4,7.6s-13.6-2.7-18.4-7.6c-4.9-4.9-7.6-11.5-7.6-18.4s2.7-13.6,7.6-18.4C748.7,619.2,755.3,616.5,762.2,616.5
	z"/>
<path class="st4" d="M253.9,343.7c7.1,0,13.8,2.8,18.8,7.8s7.8,11.8,7.8,18.8s-2.8,13.8-7.8,18.8s-11.8,7.8-18.8,7.8
	c-7.1,0-13.8-2.8-18.8-7.8s-7.8-11.8-7.8-18.8s2.8-13.8,7.8-18.8C240.1,346.5,246.8,343.7,253.9,343.7z"/>
<path class="st4" d="M827.5,737.5c7,0,13.6,2.8,18.6,7.7c4.9,4.9,7.7,11.6,7.7,18.6s-2.8,13.6-7.7,18.6s-11.6,7.7-18.6,7.7
	s-13.6-2.8-18.6-7.7s-7.7-11.6-7.7-18.6s2.8-13.6,7.7-18.6C813.8,740.2,820.5,737.5,827.5,737.5z"/>
<path class="st4" d="M685.6,372.1c6.7,0,13.1,2.6,17.8,7.4c4.7,4.7,7.4,11.1,7.4,17.8c0,6.7-2.6,13.1-7.4,17.8
	c-4.7,4.7-11.1,7.4-17.8,7.4s-13.1-2.6-17.8-7.4c-4.7-4.7-7.4-11.1-7.4-17.8c0-6.7,2.6-13.1,7.4-17.8
	C672.6,374.7,678.9,372.1,685.6,372.1z"/>
<path class="st5" d="M776.7,472.2c6.5,0,12.7,2.6,17.3,7.1c4.6,4.6,7.1,10.8,7.1,17.3s-2.6,12.7-7.1,17.3
	c-4.6,4.6-10.8,7.1-17.3,7.1s-12.7-2.6-17.3-7.1c-4.6-4.6-7.1-10.8-7.1-17.3s2.6-12.7,7.1-17.3C764,474.7,770.2,472.2,776.7,472.2z"
	/>
<path class="st5" d="M821.2,656c6.3,0,12.4,2.5,16.9,7s7,10.5,7,16.9s-2.5,12.4-7,16.9s-10.5,7-16.9,7c-6.3,0-12.4-2.5-16.9-7
	s-7-10.5-7-16.9s2.5-12.4,7-16.9C808.9,658.5,814.9,656,821.2,656z"/>
<path class="st5" d="M84.1,381.2c5.9,0,11.6,2.3,15.7,6.5c4.2,4.2,6.5,9.8,6.5,15.7s-2.3,11.6-6.5,15.7c-4.2,4.2-9.8,6.5-15.7,6.5
	c-5.9,0-11.6-2.3-15.7-6.5c-4.2-4.2-6.5-9.8-6.5-15.7s2.3-11.6,6.5-15.7C72.5,383.5,78.2,381.2,84.1,381.2z"/>
<path class="st5" d="M429.9,527.1c5.9,0,11.6,2.4,15.8,6.5c4.2,4.2,6.5,9.9,6.5,15.8c0,5.9-2.4,11.6-6.5,15.8
	c-4.2,4.2-9.9,6.5-15.8,6.5s-11.6-2.4-15.8-6.5c-4.2-4.2-6.5-9.9-6.5-15.8c0-5.9,2.4-11.6,6.5-15.8S424,527.1,429.9,527.1z"/>
<path class="st5" d="M471.3,171.5c6,0,11.8,2.4,16.1,6.7c4.3,4.3,6.7,10.1,6.7,16.1s-2.4,11.8-6.7,16.1c-4.3,4.3-10.1,6.7-16.1,6.7
	s-11.8-2.4-16.1-6.7c-4.3-4.3-6.7-10.1-6.7-16.1s2.4-11.8,6.7-16.1S465.3,171.5,471.3,171.5z"/>
<path class="st5" d="M146.2,209.4c5.9,0,11.5,2.3,15.6,6.5c4.1,4.1,6.5,9.8,6.5,15.6c0,5.9-2.3,11.5-6.5,15.6
	c-4.1,4.1-9.8,6.5-15.6,6.5c-5.9,0-11.5-2.3-15.6-6.5c-4.1-4.1-6.5-9.8-6.5-15.6c0-5.9,2.3-11.5,6.5-15.6
	C134.7,211.8,140.4,209.4,146.2,209.4z"/>
<path class="st5" d="M390.5,252.7c5.1,0,10,2,13.6,5.6c3.6,3.6,5.6,8.5,5.6,13.6s-2,10-5.6,13.6s-8.5,5.6-13.6,5.6s-10-2-13.6-5.6
	s-5.6-8.5-5.6-13.6s2-10,5.6-13.6C380.6,254.7,385.4,252.7,390.5,252.7z"/>
<path class="st6" d="M196.9,140.2c5,0,9.8,2,13.4,5.5c3.5,3.5,5.5,8.4,5.5,13.4s-2,9.8-5.5,13.4c-3.5,3.5-8.4,5.5-13.4,5.5
	s-9.8-2-13.4-5.5c-3.5-3.5-5.5-8.4-5.5-13.4s2-9.8,5.5-13.4C187.1,142.1,191.9,140.2,196.9,140.2z"/>
<path class="st5" d="M469.2,280.2c5.2,0,10.2,2.1,13.9,5.8c3.7,3.7,5.8,8.7,5.8,13.9c0,5.2-2.1,10.2-5.8,13.9
	c-3.7,3.7-8.7,5.8-13.9,5.8c-5.2,0-10.2-2.1-13.9-5.8c-3.7-3.7-5.8-8.7-5.8-13.9c0-5.2,2.1-10.2,5.8-13.9
	C459,282.2,464,280.2,469.2,280.2z"/>
<path class="st5" d="M429.9,398.3c5.2,0,10.2,2.1,13.9,5.7c3.7,3.7,5.7,8.7,5.7,13.9s-2.1,10.2-5.7,13.9c-3.7,3.7-8.7,5.7-13.9,5.7
	s-10.2-2.1-13.9-5.7c-3.7-3.7-5.7-8.7-5.7-13.9s2.1-10.2,5.7-13.9C419.7,400.4,424.7,398.3,429.9,398.3z"/>
<path class="st5" d="M348.1,165.6c5.1,0,10.1,2,13.7,5.7c3.6,3.6,5.7,8.6,5.7,13.7c0,5.1-2,10.1-5.7,13.7c-3.6,3.6-8.6,5.7-13.7,5.7
	s-10.1-2-13.7-5.7c-3.6-3.6-5.7-8.6-5.7-13.7c0-5.1,2-10.1,5.7-13.7C338,167.6,343,165.6,348.1,165.6z"/>
<path class="st5" d="M755,272c5.2,0,10.2,2.1,13.9,5.8c3.7,3.7,5.8,8.7,5.8,13.9c0,5.2-2.1,10.2-5.8,13.9c-3.7,3.7-8.7,5.8-13.9,5.8
	s-10.2-2.1-13.9-5.8c-3.7-3.7-5.8-8.7-5.8-13.9c0-5.2,2.1-10.2,5.8-13.9C744.8,274,749.8,272,755,272z"/>
<path class="st5" d="M369.8,446.9c5.2,0,10.2,2.1,13.9,5.8c3.7,3.7,5.8,8.7,5.8,13.9c0,5.2-2.1,10.2-5.8,13.9
	c-3.7,3.7-8.7,5.8-13.9,5.8c-5.2,0-10.2-2.1-13.9-5.8c-3.7-3.7-5.8-8.7-5.8-13.9c0-5.2,2.1-10.2,5.8-13.9
	C359.6,449,364.6,446.9,369.8,446.9z"/>
<path class="st5" d="M804.7,557.1c5.1,0,10,2,13.6,5.6s5.6,8.5,5.6,13.6s-2,10-5.6,13.6s-8.5,5.6-13.6,5.6s-10-2-13.6-5.6
	s-5.6-8.5-5.6-13.6s2-10,5.6-13.6S799.6,557.1,804.7,557.1z"/>
<path class="st6" d="M223.9,314c5,0,9.9,2,13.4,5.6c3.6,3.6,5.6,8.4,5.6,13.4s-2,9.9-5.6,13.4c-3.6,3.6-8.4,5.6-13.4,5.6
	s-9.9-2-13.4-5.6c-3.6-3.6-5.6-8.4-5.6-13.4s2-9.9,5.6-13.4C214,316,218.8,314,223.9,314z"/>
<path class="st5" d="M300.5,346.1c5,0,9.9,2,13.4,5.6c3.6,3.6,5.6,8.4,5.6,13.4s-2,9.9-5.6,13.4c-3.6,3.6-8.4,5.6-13.4,5.6
	s-9.9-2-13.4-5.6c-3.6-3.6-5.6-8.4-5.6-13.4s2-9.9,5.6-13.4C290.6,348.1,295.4,346.1,300.5,346.1z"/>
<path class="st6" d="M303.6,420.4c4.8,0,9.5,1.9,12.9,5.3s5.3,8,5.3,12.9c0,4.8-1.9,9.5-5.3,12.9s-8,5.3-12.9,5.3
	c-4.8,0-9.5-1.9-12.9-5.3s-5.3-8-5.3-12.9c0-4.8,1.9-9.5,5.3-12.9S298.8,420.4,303.6,420.4z"/>
<path class="st6" d="M758.1,435c4.8,0,9.4,1.9,12.8,5.3c3.4,3.4,5.3,8,5.3,12.8s-1.9,9.4-5.3,12.8c-3.4,3.4-8,5.3-12.8,5.3
	s-9.4-1.9-12.8-5.3c-3.4-3.4-5.3-8-5.3-12.8s1.9-9.4,5.3-12.8C748.7,436.9,753.3,435,758.1,435z"/>
<path class="st6" d="M369.8,320.7c4.6,0,9.1,1.8,12.4,5.1c3.3,3.3,5.1,7.7,5.1,12.4c0,4.6-1.8,9.1-5.1,12.4
	c-3.3,3.3-7.7,5.1-12.4,5.1s-9.1-1.8-12.4-5.1c-3.3-3.3-5.1-7.7-5.1-12.4c0-4.6,1.8-9.1,5.1-12.4
	C360.8,322.5,365.2,320.7,369.8,320.7z"/>
<path class="st6" d="M372.9,381.3c4.5,0,8.8,1.8,12,5s5,7.5,5,12s-1.8,8.8-5,12s-7.5,5-12,5s-8.8-1.8-12-5s-5-7.5-5-12s1.8-8.8,5-12
	C364.1,383.1,368.5,381.3,372.9,381.3z"/>
<path class="st6" d="M571.7,287.9c4.5,0,8.9,1.8,12.1,5c3.2,3.2,5,7.6,5,12.1s-1.8,8.9-5,12.1s-7.6,5-12.1,5s-8.9-1.8-12.1-5
	c-3.2-3.2-5-7.6-5-12.1s1.8-8.9,5-12.1C562.8,289.7,567.2,287.9,571.7,287.9z"/>
<path class="st6" d="M762.2,520.1c4.5,0,8.8,1.8,11.9,4.9s4.9,7.4,4.9,11.9s-1.8,8.8-4.9,11.9s-7.4,4.9-11.9,4.9s-8.8-1.8-11.9-4.9
	s-4.9-7.4-4.9-11.9s1.8-8.8,4.9-11.9S757.8,520.1,762.2,520.1z"/>
<path class="st6" d="M487.9,239.3c4.5,0,8.9,1.8,12,5c3.2,3.2,5,7.5,5,12c0,4.5-1.8,8.9-5,12c-3.2,3.2-7.5,5-12,5s-8.9-1.8-12-5
	c-3.2-3.2-5-7.5-5-12s1.8-8.9,5-12C479,241.1,483.3,239.3,487.9,239.3z"/>
<path class="st6" d="M703.2,576.9c4.5,0,8.8,1.8,12,5s5,7.5,5,12s-1.8,8.8-5,12s-7.5,5-12,5s-8.8-1.8-12-5s-5-7.5-5-12s1.8-8.8,5-12
	S698.7,576.9,703.2,576.9z"/>
<path class="st6" d="M219.7,478.3c4.6,0,9,1.8,12.2,5s5,7.6,5,12.2s-1.8,9-5,12.2s-7.6,5-12.2,5c-4.6,0-9-1.8-12.2-5s-5-7.6-5-12.2
	s1.8-9,5-12.2C210.8,480.1,215.1,478.3,219.7,478.3z"/>
<path class="st6" d="M432,350.6c4.4,0,8.6,1.7,11.7,4.8c3.1,3.1,4.8,7.3,4.8,11.7c0,4.4-1.7,8.6-4.8,11.7c-3.1,3.1-7.3,4.8-11.7,4.8
	c-4.4,0-8.6-1.7-11.7-4.8c-3.1-3.1-4.8-7.3-4.8-11.7c0-4.4,1.7-8.6,4.8-11.7C423.4,352.3,427.6,350.6,432,350.6z"/>
<path class="st6" d="M692.9,322.1c4.3,0,8.4,1.7,11.4,4.7s4.7,7.1,4.7,11.4s-1.7,8.4-4.7,11.4s-7.1,4.7-11.4,4.7
	c-4.3,0-8.4-1.7-11.4-4.7s-4.7-7.1-4.7-11.4s1.7-8.4,4.7-11.4C684.5,323.8,688.6,322.1,692.9,322.1z"/>
<path class="st6" d="M213.5,386.3c4.3,0,8.4,1.7,11.4,4.7s4.7,7.1,4.7,11.4s-1.7,8.4-4.7,11.4s-7.1,4.7-11.4,4.7
	c-4.3,0-8.4-1.7-11.4-4.7s-4.7-7.1-4.7-11.4s1.7-8.4,4.7-11.4S209.2,386.3,213.5,386.3z"/>
<path class="st6" d="M543.8,541.5c4.3,0,8.4,1.7,11.4,4.7s4.7,7.1,4.7,11.4c0,4.3-1.7,8.4-4.7,11.4s-7.1,4.7-11.4,4.7
	c-4.3,0-8.4-1.7-11.4-4.7s-4.7-7.1-4.7-11.4c0-4.3,1.7-8.4,4.7-11.4C535.4,543.2,539.5,541.5,543.8,541.5z"/>
<path class="st6" d="M523.1,336.5c4.3,0,8.4,1.7,11.5,4.7c3,3,4.7,7.2,4.7,11.5s-1.7,8.4-4.7,11.5c-3,3-7.2,4.7-11.5,4.7
	s-8.4-1.7-11.5-4.7c-3-3-4.7-7.2-4.7-11.5s1.7-8.4,4.7-11.5C514.6,338.2,518.8,336.5,523.1,336.5z"/>
<path class="st6" d="M662.8,575.7c4.3,0,8.4,1.7,11.4,4.7s4.7,7.1,4.7,11.4c0,4.3-1.7,8.4-4.7,11.4s-7.1,4.7-11.4,4.7
	c-4.3,0-8.4-1.7-11.4-4.7s-4.7-7.1-4.7-11.4c0-4.3,1.7-8.4,4.7-11.4S658.6,575.7,662.8,575.7z"/>
<path class="st6" d="M675.3,448.7c4.2,0,8.2,1.7,11.2,4.6c3,3,4.6,7,4.6,11.2s-1.7,8.2-4.6,11.2c-3,3-7,4.6-11.2,4.6
	s-8.2-1.7-11.2-4.6c-3-3-4.6-7-4.6-11.2s1.7-8.2,4.6-11.2C667,450.3,671.1,448.7,675.3,448.7z"/>
<path class="st6" d="M158.6,470.1c4.3,0,8.4,1.7,11.4,4.7s4.7,7.1,4.7,11.4s-1.7,8.4-4.7,11.4s-7.1,4.7-11.4,4.7
	c-4.3,0-8.4-1.7-11.4-4.7s-4.7-7.1-4.7-11.4s1.7-8.4,4.7-11.4C150.3,471.8,154.4,470.1,158.6,470.1z"/>
<path class="st6" d="M468.2,75.8c4.2,0,8.3,1.7,11.3,4.7s4.7,7.1,4.7,11.3c0,4.2-1.7,8.3-4.7,11.3s-7.1,4.7-11.3,4.7
	c-4.2,0-8.3-1.7-11.3-4.7s-4.7-7.1-4.7-11.3c0-4.2,1.7-8.3,4.7-11.3C459.9,77.5,464,75.8,468.2,75.8z"/>
<path class="st6" d="M587.3,476.6c4.2,0,8.2,1.7,11.2,4.6c3,3,4.6,7,4.6,11.2s-1.7,8.2-4.6,11.2c-3,3-7,4.6-11.2,4.6
	s-8.2-1.7-11.2-4.6c-3-3-4.6-7-4.6-11.2s1.7-8.2,4.6-11.2C579,478.2,583,476.6,587.3,476.6z"/>
<path class="st6" d="M794.3,726.4c3.8,0,7.5,1.5,10.2,4.2s4.2,6.4,4.2,10.2s-1.5,7.5-4.2,10.2s-6.4,4.2-10.2,4.2s-7.5-1.5-10.2-4.2
	s-4.2-6.4-4.2-10.2s1.5-7.5,4.2-10.2S790.5,726.4,794.3,726.4z"/>
<path class="st6" d="M71.7,343.7c3.8,0,7.4,1.5,10,4.2c2.7,2.7,4.2,6.3,4.2,10s-1.5,7.4-4.2,10c-2.7,2.7-6.3,4.2-10,4.2
	c-3.8,0-7.4-1.5-10-4.2c-2.7-2.7-4.2-6.3-4.2-10s1.5-7.4,4.2-10C64.3,345.2,67.9,343.7,71.7,343.7z"/>
<path class="st6" d="M722.9,401.8c3.7,0,7.3,1.5,9.9,4.1c2.6,2.6,4.1,6.2,4.1,9.9c0,3.7-1.5,7.3-4.1,9.9s-6.2,4.1-9.9,4.1
	s-7.3-1.5-9.9-4.1c-2.6-2.6-4.1-6.2-4.1-9.9c0-3.7,1.5-7.3,4.1-9.9S719.2,401.8,722.9,401.8z"/>
<path class="st6" d="M411.3,502.1c3.7,0,7.3,1.5,10,4.1c2.6,2.6,4.1,6.2,4.1,10c0,3.7-1.5,7.3-4.1,10c-2.6,2.6-6.2,4.1-10,4.1
	c-3.7,0-7.3-1.5-10-4.1c-2.6-2.6-4.1-6.2-4.1-10c0-3.7,1.5-7.3,4.1-10C403.9,503.6,407.5,502.1,411.3,502.1z"/>
<path class="st6" d="M495.1,459.7c3.7,0,7.3,1.5,9.9,4.1s4.1,6.2,4.1,9.9c0,3.7-1.5,7.3-4.1,9.9s-6.2,4.1-9.9,4.1
	c-3.7,0-7.3-1.5-9.9-4.1s-4.1-6.2-4.1-9.9c0-3.7,1.5-7.3,4.1-9.9S491.4,459.7,495.1,459.7z"/>
<path class="st6" d="M814,706.5c3.6,0,7.1,1.4,9.7,4c2.6,2.6,4,6.1,4,9.7s-1.4,7.1-4,9.7c-2.6,2.6-6.1,4-9.7,4s-7.1-1.4-9.7-4
	c-2.6-2.6-4-6.1-4-9.7s1.4-7.1,4-9.7C806.9,707.9,810.4,706.5,814,706.5z"/>
<path class="st6" d="M381.2,222.9c3.7,0,7.2,1.5,9.8,4.1s4.1,6.1,4.1,9.8s-1.5,7.2-4.1,9.8s-6.1,4.1-9.8,4.1c-3.7,0-7.2-1.5-9.8-4.1
	c-2.6-2.6-4.1-6.1-4.1-9.8s1.5-7.2,4.1-9.8C374,224.3,377.6,222.9,381.2,222.9z"/>
<path class="st6" d="M631.8,640.6c3.5,0,6.9,1.4,9.4,3.9s3.9,5.9,3.9,9.4s-1.4,6.9-3.9,9.4s-5.9,3.9-9.4,3.9s-6.9-1.4-9.4-3.9
	s-3.9-5.9-3.9-9.4s1.4-6.9,3.9-9.4C624.8,642,628.2,640.6,631.8,640.6z"/>
<path class="st6" d="M293.2,392.2c3.5,0,6.9,1.4,9.4,3.9s3.9,5.8,3.9,9.4s-1.4,6.9-3.9,9.4s-5.8,3.9-9.4,3.9c-3.5,0-6.9-1.4-9.4-3.9
	s-3.9-5.8-3.9-9.4s1.4-6.9,3.9-9.4C286.4,393.6,289.7,392.2,293.2,392.2z"/>
<path class="st6" d="M107.9,241.1c3.5,0,6.9,1.4,9.3,3.9c2.5,2.5,3.9,5.8,3.9,9.3c0,3.5-1.4,6.9-3.9,9.3c-2.5,2.5-5.8,3.9-9.3,3.9
	s-6.9-1.4-9.3-3.9c-2.5-2.5-3.9-5.8-3.9-9.3c0-3.5,1.4-6.9,3.9-9.3C101,242.5,104.4,241.1,107.9,241.1z"/>
<path class="st6" d="M653.5,274.9c3.6,0,7.1,1.4,9.6,4c2.6,2.6,4,6,4,9.6s-1.4,7.1-4,9.6c-2.6,2.6-6,4-9.6,4s-7.1-1.4-9.6-4
	c-2.6-2.6-4-6-4-9.6s1.4-7.1,4-9.6C646.4,276.3,649.9,274.9,653.5,274.9z"/>
<path class="st6" d="M165.9,159.9c3.6,0,7.1,1.4,9.6,4c2.6,2.6,4,6,4,9.6s-1.4,7.1-4,9.6c-2.6,2.6-6,4-9.6,4s-7.1-1.4-9.6-4
	c-2.6-2.6-4-6-4-9.6s1.4-7.1,4-9.6C158.8,161.4,162.3,159.9,165.9,159.9z"/>
<path class="st6" d="M210.4,248c3.6,0,7,1.4,9.6,4s4,6,4,9.6s-1.4,7-4,9.6c-2.5,2.5-6,4-9.6,4s-7-1.4-9.6-4c-2.5-2.5-4-6-4-9.6
	s1.4-7,4-9.6S206.8,248,210.4,248z"/>
<path class="st6" d="M608,425.5c3.5,0,6.8,1.4,9.3,3.8c2.5,2.5,3.8,5.8,3.8,9.3s-1.4,6.8-3.8,9.3c-2.5,2.5-5.8,3.8-9.3,3.8
	s-6.8-1.4-9.3-3.8c-2.5-2.5-3.8-5.8-3.8-9.3s1.4-6.8,3.8-9.3C601.2,426.9,604.5,425.5,608,425.5z"/>
<path class="st6" d="M334.6,557.1c3.4,0,6.8,1.4,9.2,3.8c2.4,2.4,3.8,5.7,3.8,9.2c0,3.4-1.4,6.8-3.8,9.2s-5.7,3.8-9.2,3.8
	c-3.4,0-6.8-1.4-9.2-3.8c-2.4-2.4-3.8-5.7-3.8-9.2c0-3.4,1.4-6.8,3.8-9.2C327.9,558.4,331.2,557.1,334.6,557.1z"/>
<path class="st6" d="M300.5,295.6c3.3,0,6.5,1.3,8.9,3.7c2.4,2.4,3.7,5.6,3.7,8.9s-1.3,6.5-3.7,8.9c-2.4,2.4-5.6,3.7-8.9,3.7
	s-6.5-1.3-8.9-3.7c-2.4-2.4-3.7-5.6-3.7-8.9s1.3-6.5,3.7-8.9C293.9,296.9,297.1,295.6,300.5,295.6z"/>
<path class="st6" d="M727,607.1c3.4,0,6.6,1.3,8.9,3.7c2.4,2.4,3.7,5.6,3.7,8.9c0,3.4-1.3,6.6-3.7,8.9c-2.4,2.4-5.6,3.7-8.9,3.7
	c-3.4,0-6.6-1.3-8.9-3.7s-3.7-5.6-3.7-8.9c0-3.4,1.3-6.6,3.7-8.9S723.7,607.1,727,607.1z"/>
<path class="st6" d="M302.5,167.1c3.4,0,6.6,1.3,9,3.7s3.7,5.6,3.7,9s-1.3,6.6-3.7,9c-2.4,2.4-5.6,3.7-9,3.7s-6.6-1.3-9-3.7
	s-3.7-5.6-3.7-9s1.3-6.6,3.7-9C295.9,168.4,299.2,167.1,302.5,167.1z"/>
<path class="st6" d="M438.2,444c3.2,0,6.3,1.3,8.6,3.6c2.3,2.3,3.6,5.4,3.6,8.6s-1.3,6.3-3.6,8.6c-2.3,2.3-5.4,3.6-8.6,3.6
	s-6.3-1.3-8.6-3.6c-2.3-2.3-3.6-5.4-3.6-8.6s1.3-6.3,3.6-8.6C431.8,445.3,434.9,444,438.2,444z"/>
<path class="st6" d="M79.9,274.4c3.2,0,6.2,1.3,8.5,3.5c2.2,2.2,3.5,5.3,3.5,8.5s-1.3,6.2-3.5,8.5c-2.2,2.2-5.3,3.5-8.5,3.5
	s-6.2-1.3-8.5-3.5c-2.2-2.2-3.5-5.3-3.5-8.5s1.3-6.2,3.5-8.5C73.7,275.7,76.8,274.4,79.9,274.4z"/>
<path class="st6" d="M553.1,453.3c3.2,0,6.4,1.3,8.7,3.6c2.3,2.3,3.6,5.4,3.6,8.7c0,3.2-1.3,6.4-3.6,8.7c-2.3,2.3-5.4,3.6-8.7,3.6
	s-6.4-1.3-8.7-3.6c-2.3-2.3-3.6-5.4-3.6-8.7c0-3.2,1.3-6.4,3.6-8.7C546.7,454.6,549.8,453.3,553.1,453.3z"/>
<path class="st6" d="M702.2,468.9c3.2,0,6.3,1.3,8.6,3.6c2.3,2.3,3.6,5.4,3.6,8.6s-1.3,6.3-3.6,8.6c-2.3,2.3-5.4,3.6-8.6,3.6
	c-3.2,0-6.3-1.3-8.6-3.6c-2.3-2.3-3.6-5.4-3.6-8.6s1.3-6.3,3.6-8.6C695.9,470.2,699,468.9,702.2,468.9z"/>
<path class="st6" d="M735.3,657.2c3.3,0,6.4,1.3,8.7,3.6s3.6,5.4,3.6,8.7s-1.3,6.4-3.6,8.7s-5.4,3.6-8.7,3.6s-6.4-1.3-8.7-3.6
	s-3.6-5.4-3.6-8.7s1.3-6.4,3.6-8.7C728.9,658.5,732,657.2,735.3,657.2z"/>
<path class="st6" d="M369.8,197.7c3.2,0,6.3,1.3,8.5,3.5c2.3,2.3,3.5,5.3,3.5,8.5s-1.3,6.3-3.5,8.5c-2.3,2.3-5.3,3.5-8.5,3.5
	s-6.3-1.3-8.5-3.5c-2.3-2.3-3.5-5.3-3.5-8.5s1.3-6.3,3.5-8.5C363.6,199,366.6,197.7,369.8,197.7z"/>
<path class="st6" d="M71.7,302.6c3.1,0,6.1,1.2,8.3,3.5c2.2,2.2,3.5,5.2,3.5,8.3c0,3.1-1.2,6.1-3.5,8.3c-2.2,2.2-5.2,3.5-8.3,3.5
	c-3.1,0-6.1-1.2-8.3-3.5c-2.2-2.2-3.5-5.2-3.5-8.3c0-3.1,1.2-6.1,3.5-8.3C65.5,303.8,68.5,302.6,71.7,302.6z"/>
<path class="st7" d="M377.1,290.4c3.1,0,6,1.2,8.2,3.4c2.2,2.2,3.4,5.1,3.4,8.2s-1.2,6-3.4,8.2c-2.2,2.2-5.1,3.4-8.2,3.4
	s-6-1.2-8.2-3.4c-2.2-2.2-3.4-5.1-3.4-8.2s1.2-6,3.4-8.2C371.1,291.6,374,290.4,377.1,290.4z"/>
<path class="st7" d="M493,155.9c3,0,6,1.2,8.1,3.4c2.2,2.2,3.4,5.1,3.4,8.1s-1.2,6-3.4,8.1c-2.2,2.2-5.1,3.4-8.1,3.4s-6-1.2-8.1-3.4
	c-2.2-2.2-3.4-5.1-3.4-8.1s1.2-6,3.4-8.1C487.1,157.1,490,155.9,493,155.9z"/>
<path class="st7" d="M605.9,337.1c3,0,6,1.2,8.1,3.4c2.1,2.1,3.4,5.1,3.4,8.1s-1.2,6-3.4,8.1c-2.1,2.1-5.1,3.4-8.1,3.4
	s-6-1.2-8.1-3.4c-2.1-2.1-3.4-5.1-3.4-8.1s1.2-6,3.4-8.1C599.9,338.3,602.9,337.1,605.9,337.1z"/>
<path class="st7" d="M775.7,305c3,0,6,1.2,8.1,3.4c2.2,2.2,3.4,5.1,3.4,8.1s-1.2,6-3.4,8.1c-2.2,2.2-5.1,3.4-8.1,3.4s-6-1.2-8.1-3.4
	c-2.2-2.2-3.4-5.1-3.4-8.1s1.2-6,3.4-8.1C769.7,306.2,772.6,305,775.7,305z"/>
<path class="st7" d="M419.5,111.4c3,0,5.9,1.2,8.1,3.3c2.1,2.1,3.3,5,3.3,8.1c0,3-1.2,5.9-3.3,8.1c-2.1,2.1-5,3.3-8.1,3.3
	c-3,0-5.9-1.2-8.1-3.3c-2.1-2.1-3.3-5-3.3-8.1c0-3,1.2-5.9,3.3-8.1C413.6,112.6,416.5,111.4,419.5,111.4z"/>
<path class="st7" d="M168,408.6c3,0,5.9,1.2,8.1,3.3s3.3,5,3.3,8.1c0,3-1.2,5.9-3.3,8.1c-2.1,2.1-5,3.3-8.1,3.3
	c-3,0-5.9-1.2-8.1-3.3c-2.1-2.1-3.3-5-3.3-8.1c0-3,1.2-5.9,3.3-8.1S164.9,408.6,168,408.6z"/>
<path class="st7" d="M322.2,76.2c3,0,5.9,1.2,8.1,3.3c2.1,2.1,3.3,5,3.3,8.1c0,3-1.2,5.9-3.3,8.1c-2.1,2.1-5,3.3-8.1,3.3
	c-3,0-5.9-1.2-8.1-3.3c-2.1-2.1-3.3-5-3.3-8.1c0-3,1.2-5.9,3.3-8.1C316.3,77.4,319.2,76.2,322.2,76.2z"/>
<path class="st7" d="M277.7,289.3c3.1,0,6,1.2,8.2,3.4c2.2,2.2,3.4,5.1,3.4,8.2s-1.2,6-3.4,8.2c-2.2,2.2-5.1,3.4-8.2,3.4
	s-6-1.2-8.2-3.4c-2.2-2.2-3.4-5.1-3.4-8.2s1.2-6,3.4-8.2C271.7,290.6,274.6,289.3,277.7,289.3z"/>
<path class="st7" d="M502.4,492.2c3.1,0,6,1.2,8.2,3.4c2.2,2.2,3.4,5.1,3.4,8.2s-1.2,6-3.4,8.2c-2.2,2.2-5.1,3.4-8.2,3.4
	s-6-1.2-8.2-3.4s-3.4-5.1-3.4-8.2s1.2-6,3.4-8.2C496.3,493.5,499.3,492.2,502.4,492.2z"/>
<path class="st7" d="M190.7,486c3.1,0,6,1.2,8.2,3.4c2.2,2.2,3.4,5.1,3.4,8.2s-1.2,6-3.4,8.2s-5.1,3.4-8.2,3.4c-3.1,0-6-1.2-8.2-3.4
	c-2.2-2.2-3.4-5.1-3.4-8.2s1.2-6,3.4-8.2C184.7,487.2,187.7,486,190.7,486z"/>
<path class="st7" d="M340.9,437.4c3.1,0,6,1.2,8.2,3.4c2.2,2.2,3.4,5.1,3.4,8.2s-1.2,6-3.4,8.2c-2.2,2.2-5.1,3.4-8.2,3.4
	s-6-1.2-8.2-3.4c-2.2-2.2-3.4-5.1-3.4-8.2s1.2-6,3.4-8.2C334.8,438.6,337.8,437.4,340.9,437.4z"/>
<path class="st7" d="M582.1,509c3,0,5.9,1.2,8.1,3.3c2.1,2.1,3.3,5,3.3,8.1c0,3-1.2,5.9-3.3,8.1c-2.1,2.1-5,3.3-8.1,3.3
	c-3,0-5.9-1.2-8.1-3.3c-2.1-2.1-3.3-5-3.3-8.1c0-3,1.2-5.9,3.3-8.1C576.2,510.2,579.1,509,582.1,509z"/>
<path class="st7" d="M572.8,581.4c3,0,6,1.2,8.1,3.4c2.2,2.2,3.4,5.1,3.4,8.1s-1.2,6-3.4,8.1s-5.1,3.4-8.1,3.4s-6-1.2-8.1-3.4
	s-3.4-5.1-3.4-8.1s1.2-6,3.4-8.1C566.8,582.6,569.7,581.4,572.8,581.4z"/>
<path class="st6" d="M159.7,186.7c3.1,0,6.1,1.2,8.2,3.4c2.2,2.2,3.4,5.2,3.4,8.2c0,3.1-1.2,6.1-3.4,8.2c-2.2,2.2-5.2,3.4-8.2,3.4
	s-6.1-1.2-8.2-3.4c-2.2-2.2-3.4-5.2-3.4-8.2c0-3.1,1.2-6.1,3.4-8.2C153.6,188,156.6,186.7,159.7,186.7z"/>
<path class="st7" d="M397.8,44c3,0,6,1.2,8.1,3.4c2.2,2.2,3.4,5.1,3.4,8.1s-1.2,6-3.4,8.1c-2.2,2.2-5.1,3.4-8.1,3.4s-6-1.2-8.1-3.4
	c-2.2-2.2-3.4-5.1-3.4-8.1s1.2-6,3.4-8.1S394.7,44,397.8,44z"/>
<path class="st7" d="M159.7,279.2c2.7,0,5.4,1.1,7.3,3c1.9,1.9,3,4.6,3,7.3c0,2.7-1.1,5.4-3,7.3s-4.6,3-7.3,3s-5.4-1.1-7.3-3
	s-3-4.6-3-7.3c0-2.7,1.1-5.4,3-7.3C154.3,280.3,156.9,279.2,159.7,279.2z"/>
<path class="st7" d="M223.9,130.9c2.8,0,5.5,1.1,7.5,3.1s3.1,4.7,3.1,7.5s-1.1,5.5-3.1,7.5s-4.7,3.1-7.5,3.1s-5.5-1.1-7.5-3.1
	s-3.1-4.7-3.1-7.5s1.1-5.5,3.1-7.5S221.1,130.9,223.9,130.9z"/>
<path class="st7" d="M625.6,562.5c2.8,0,5.6,1.1,7.6,3.1s3.1,4.7,3.1,7.6c0,2.8-1.1,5.6-3.1,7.6s-4.7,3.1-7.6,3.1
	c-2.8,0-5.6-1.1-7.6-3.1s-3.1-4.7-3.1-7.6c0-2.8,1.1-5.6,3.1-7.6S622.7,562.5,625.6,562.5z"/>
<path class="st7" d="M521,369.5c2.7,0,5.2,1.1,7.1,3c1.9,1.9,3,4.5,3,7.1s-1.1,5.2-3,7.1s-4.5,3-7.1,3c-2.7,0-5.2-1.1-7.1-3
	c-1.9-1.9-3-4.5-3-7.1s1.1-5.2,3-7.1C515.8,370.6,518.3,369.5,521,369.5z"/>
<path class="st7" d="M743.6,419.4c2.6,0,5.2,1,7,2.9c1.9,1.9,2.9,4.4,2.9,7s-1,5.2-2.9,7c-1.9,1.9-4.4,2.9-7,2.9s-5.2-1-7-2.9
	c-1.9-1.9-2.9-4.4-2.9-7s1-5.2,2.9-7C738.4,420.4,741,419.4,743.6,419.4z"/>
<path class="st7" d="M596.6,307.5c2.6,0,5.2,1,7,2.9s2.9,4.4,2.9,7s-1,5.2-2.9,7s-4.4,2.9-7,2.9s-5.2-1-7-2.9s-2.9-4.4-2.9-7
	s1-5.2,2.9-7S593.9,307.5,596.6,307.5z"/>
<path class="st7" d="M489.9,439.8c2.7,0,5.3,1.1,7.2,3c1.9,1.9,3,4.5,3,7.2s-1.1,5.3-3,7.2c-1.9,1.9-4.5,3-7.2,3s-5.3-1.1-7.2-3
	c-1.9-1.9-3-4.5-3-7.2s1.1-5.3,3-7.2C484.7,440.9,487.2,439.8,489.9,439.8z"/>
<path class="st7" d="M340.9,338.9c2.5,0,5,1,6.8,2.8s2.8,4.2,2.8,6.8c0,2.5-1,5-2.8,6.8s-4.2,2.8-6.8,2.8c-2.5,0-5-1-6.8-2.8
	s-2.8-4.2-2.8-6.8c0-2.5,1-5,2.8-6.8S338.3,338.9,340.9,338.9z"/>
<path class="st7" d="M131.7,291.5c2.5,0,4.9,1,6.6,2.8c1.8,1.8,2.8,4.2,2.8,6.6c0,2.5-1,4.9-2.8,6.6c-1.8,1.8-4.2,2.8-6.6,2.8
	c-2.5,0-4.9-1-6.6-2.8c-1.8-1.8-2.8-4.2-2.8-6.6c0-2.5,1-4.9,2.8-6.6C126.8,292.5,129.2,291.5,131.7,291.5z"/>
<path class="st7" d="M396.8,97.9c2.5,0,4.9,1,6.6,2.7c1.8,1.8,2.7,4.1,2.7,6.6s-1,4.9-2.7,6.6c-1.8,1.8-4.1,2.7-6.6,2.7
	s-4.9-1-6.6-2.7c-1.8-1.8-2.7-4.1-2.7-6.6s1-4.9,2.7-6.6S394.3,97.9,396.8,97.9z"/>
<path class="st8" d="M306.7,483.2c2.4,0,4.8,1,6.5,2.7s2.7,4.1,2.7,6.5s-1,4.8-2.7,6.5s-4.1,2.7-6.5,2.7s-4.8-1-6.5-2.7
	s-2.7-4.1-2.7-6.5s1-4.8,2.7-6.5C301.9,484.2,304.2,483.2,306.7,483.2z"/>
<path class="st8" d="M554.1,431.5c2.4,0,4.8,1,6.5,2.7s2.7,4.1,2.7,6.5s-1,4.8-2.7,6.5s-4.1,2.7-6.5,2.7s-4.8-1-6.5-2.7
	s-2.7-4.1-2.7-6.5s1-4.8,2.7-6.5S551.7,431.5,554.1,431.5z"/>
<path class="st7" d="M793.3,650.8c2.5,0,4.9,1,6.7,2.8s2.8,4.2,2.8,6.7s-1,4.9-2.8,6.7s-4.2,2.8-6.7,2.8s-4.9-1-6.7-2.8
	s-2.8-4.2-2.8-6.7s1-4.9,2.8-6.7C788.4,651.7,790.8,650.8,793.3,650.8z"/>
<path class="st7" d="M419.5,142.4c2.5,0,4.9,1,6.6,2.7s2.7,4.1,2.7,6.6s-1,4.9-2.7,6.6c-1.8,1.8-4.1,2.7-6.6,2.7s-4.9-1-6.6-2.7
	c-1.8-1.8-2.7-4.1-2.7-6.6s1-4.9,2.7-6.6C414.7,143.4,417.1,142.4,419.5,142.4z"/>
<path class="st8" d="M404,563.1c2.4,0,4.7,1,6.4,2.7c1.7,1.7,2.7,4,2.7,6.4s-1,4.7-2.7,6.4s-4,2.7-6.4,2.7s-4.7-1-6.4-2.7
	c-1.7-1.7-2.7-4-2.7-6.4s1-4.7,2.7-6.4C399.3,564,401.6,563.1,404,563.1z"/>
<path class="st8" d="M72.7,326.2c2.4,0,4.6,0.9,6.3,2.6c1.7,1.7,2.6,3.9,2.6,6.3s-0.9,4.6-2.6,6.3c-1.7,1.7-3.9,2.6-6.3,2.6
	s-4.6-0.9-6.3-2.6c-1.7-1.7-2.6-3.9-2.6-6.3s0.9-4.6,2.6-6.3C68.1,327.1,70.3,326.2,72.7,326.2z"/>
<path class="st8" d="M233.2,459.9c2.3,0,4.5,0.9,6.2,2.6c1.6,1.6,2.6,3.9,2.6,6.2c0,2.3-0.9,4.5-2.6,6.2c-1.6,1.6-3.9,2.6-6.2,2.6
	s-4.5-0.9-6.2-2.6c-1.6-1.6-2.6-3.9-2.6-6.2c0-2.3,0.9-4.5,2.6-6.2C228.6,460.8,230.9,459.9,233.2,459.9z"/>
<path class="st8" d="M651.4,461.9c2.3,0,4.6,0.9,6.2,2.6c1.6,1.6,2.6,3.9,2.6,6.2c0,2.3-0.9,4.6-2.6,6.2c-1.6,1.6-3.9,2.6-6.2,2.6
	s-4.6-0.9-6.2-2.6c-1.6-1.6-2.6-3.9-2.6-6.2c0-2.3,0.9-4.6,2.6-6.2C646.9,462.8,649.1,461.9,651.4,461.9z"/>
<path class="st8" d="M430.9,474.6c2.3,0,4.4,0.9,6,2.5s2.5,3.8,2.5,6s-0.9,4.4-2.5,6s-3.8,2.5-6,2.5c-2.3,0-4.4-0.9-6-2.5
	s-2.5-3.8-2.5-6s0.9-4.4,2.5-6S428.7,474.6,430.9,474.6z"/>
<path class="st8" d="M264.2,520.4c2.2,0,4.3,0.9,5.9,2.4c1.6,1.6,2.4,3.7,2.4,5.9s-0.9,4.3-2.4,5.9c-1.6,1.6-3.7,2.4-5.9,2.4
	s-4.3-0.9-5.9-2.4c-1.6-1.6-2.4-3.7-2.4-5.9s0.9-4.3,2.4-5.9C259.9,521.3,262,520.4,264.2,520.4z"/>
<path class="st8" d="M155.5,367.3c2.2,0,4.3,0.9,5.8,2.4s2.4,3.6,2.4,5.8s-0.9,4.3-2.4,5.8s-3.6,2.4-5.8,2.4s-4.3-0.9-5.8-2.4
	s-2.4-3.6-2.4-5.8s0.9-4.3,2.4-5.8S153.4,367.3,155.5,367.3z"/>
<path class="st8" d="M339.8,508.3c2.1,0,4.1,0.8,5.6,2.3s2.3,3.5,2.3,5.6s-0.8,4.1-2.3,5.6s-3.5,2.3-5.6,2.3s-4.1-0.8-5.6-2.3
	s-2.3-3.5-2.3-5.6s0.8-4.1,2.3-5.6C335.7,509.1,337.7,508.3,339.8,508.3z"/>
<path class="st8" d="M185.6,403.9c2.1,0,4,0.8,5.5,2.3s2.3,3.4,2.3,5.5s-0.8,4-2.3,5.5s-3.4,2.3-5.5,2.3s-4-0.8-5.5-2.3
	s-2.3-3.4-2.3-5.5s0.8-4,2.3-5.5C181.5,404.7,183.5,403.9,185.6,403.9z"/>
<path class="st8" d="M845.1,642.2c2,0,4,0.8,5.4,2.2s2.2,3.4,2.2,5.4s-0.8,4-2.2,5.4s-3.4,2.2-5.4,2.2s-4-0.8-5.4-2.2
	s-2.2-3.4-2.2-5.4s0.8-4,2.2-5.4S843,642.2,845.1,642.2z"/>
<path class="st8" d="M682.5,353.4c2,0,3.9,0.8,5.4,2.2c1.4,1.4,2.2,3.3,2.2,5.4c0,2-0.8,3.9-2.2,5.4c-1.4,1.4-3.3,2.2-5.4,2.2
	c-2,0-3.9-0.8-5.4-2.2c-1.4-1.4-2.2-3.3-2.2-5.4c0-2,0.8-3.9,2.2-5.4C678.6,354.2,680.5,353.4,682.5,353.4z"/>
<path class="st9" d="M706.3,514c2,0,3.8,0.8,5.2,2.2s2.2,3.3,2.2,5.2s-0.8,3.8-2.2,5.2s-3.3,2.2-5.2,2.2s-3.8-0.8-5.2-2.2
	s-2.2-3.3-2.2-5.2s0.8-3.8,2.2-5.2S704.4,514,706.3,514z"/>
<path class="st9" d="M708.4,492.3c2,0,3.9,0.8,5.2,2.2c1.4,1.4,2.2,3.3,2.2,5.2c0,2-0.8,3.9-2.2,5.2c-1.4,1.4-3.3,2.2-5.2,2.2
	c-2,0-3.9-0.8-5.2-2.2c-1.4-1.4-2.2-3.3-2.2-5.2c0-2,0.8-3.9,2.2-5.2C704.5,493.1,706.4,492.3,708.4,492.3z"/>
<path class="st9" d="M837.8,581.3c2,0,3.9,0.8,5.3,2.2c1.4,1.4,2.2,3.3,2.2,5.3s-0.8,3.9-2.2,5.3c-1.4,1.4-3.3,2.2-5.3,2.2
	s-3.9-0.8-5.3-2.2s-2.2-3.3-2.2-5.3s0.8-3.9,2.2-5.3C833.9,582,835.8,581.3,837.8,581.3z"/>
<path class="st8" d="M777.8,547.8c2.1,0,4,0.8,5.5,2.3s2.3,3.4,2.3,5.5s-0.8,4-2.3,5.5s-3.4,2.3-5.5,2.3s-4-0.8-5.5-2.3
	s-2.3-3.4-2.3-5.5s0.8-4,2.3-5.5C773.7,548.6,775.7,547.8,777.8,547.8z"/>
<path class="st8" d="M396.8,405.9c2.1,0,4.1,0.8,5.6,2.3s2.3,3.5,2.3,5.6s-0.8,4.1-2.3,5.6s-3.5,2.3-5.6,2.3s-4.1-0.8-5.6-2.3
	s-2.3-3.5-2.3-5.6s0.8-4.1,2.3-5.6C392.7,406.7,394.7,405.9,396.8,405.9z"/>
<path class="st8" d="M738.4,261.2c2,0,4,0.8,5.4,2.2c1.4,1.4,2.2,3.4,2.2,5.4s-0.8,4-2.2,5.4s-3.4,2.2-5.4,2.2s-4-0.8-5.4-2.2
	c-1.4-1.4-2.2-3.4-2.2-5.4s0.8-4,2.2-5.4C734.5,262,736.4,261.2,738.4,261.2z"/>
<path class="st8" d="M462,539.7c2,0,3.9,0.8,5.4,2.2c1.4,1.4,2.2,3.4,2.2,5.4s-0.8,3.9-2.2,5.4c-1.4,1.4-3.4,2.2-5.4,2.2
	s-3.9-0.8-5.4-2.2c-1.4-1.4-2.2-3.4-2.2-5.4s0.8-3.9,2.2-5.4C458,540.5,460,539.7,462,539.7z"/>
<path class="st9" d="M660.8,363.9c2,0,3.8,0.8,5.2,2.2s2.2,3.3,2.2,5.2c0,2-0.8,3.8-2.2,5.2c-1.4,1.4-3.3,2.2-5.2,2.2
	c-2,0-3.8-0.8-5.2-2.2c-1.4-1.4-2.2-3.3-2.2-5.2c0-2,0.8-3.8,2.2-5.2C656.9,364.7,658.8,363.9,660.8,363.9z"/>
<path class="st9" d="M857.5,774c1.9,0,3.8,0.8,5.1,2.1c1.4,1.4,2.1,3.2,2.1,5.1s-0.8,3.8-2.1,5.1c-1.4,1.4-3.2,2.1-5.1,2.1
	c-1.9,0-3.8-0.8-5.1-2.1c-1.4-1.4-2.1-3.2-2.1-5.1s0.8-3.8,2.1-5.1S855.6,774,857.5,774z"/>
<path class="st9" d="M652.5,645.7c1.9,0,3.8,0.8,5.1,2.1c1.4,1.4,2.1,3.2,2.1,5.1c0,1.9-0.8,3.8-2.1,5.1c-1.4,1.4-3.2,2.1-5.1,2.1
	c-1.9,0-3.8-0.8-5.1-2.1c-1.4-1.4-2.1-3.2-2.1-5.1c0-1.9,0.8-3.8,2.1-5.1C648.7,646.4,650.6,645.7,652.5,645.7z"/>
<path class="st9" d="M447.5,205.6c1.9,0,3.8,0.8,5.1,2.1c1.4,1.4,2.1,3.2,2.1,5.1s-0.8,3.8-2.1,5.1c-1.4,1.4-3.2,2.1-5.1,2.1
	s-3.8-0.8-5.1-2.1c-1.4-1.4-2.1-3.2-2.1-5.1s0.8-3.8,2.1-5.1C443.7,206.4,445.6,205.6,447.5,205.6z"/>
<path class="st9" d="M304.6,218.9c2,0,3.9,0.8,5.3,2.2c1.4,1.4,2.2,3.3,2.2,5.3c0,2-0.8,3.9-2.2,5.3c-1.4,1.4-3.3,2.2-5.3,2.2
	c-2,0-3.9-0.8-5.3-2.2c-1.4-1.4-2.2-3.3-2.2-5.3c0-2,0.8-3.9,2.2-5.3C300.7,219.6,302.6,218.9,304.6,218.9z"/>
<path class="st9" d="M774.7,330.8c2,0,3.9,0.8,5.2,2.2c1.4,1.4,2.2,3.3,2.2,5.2c0,2-0.8,3.9-2.2,5.2c-1.4,1.4-3.3,2.2-5.2,2.2
	s-3.9-0.8-5.2-2.2c-1.4-1.4-2.2-3.3-2.2-5.2c0-2,0.8-3.9,2.2-5.2C770.8,331.5,772.7,330.8,774.7,330.8z"/>
<path class="st9" d="M643.2,571.1c1.9,0,3.8,0.8,5.2,2.1s2.1,3.2,2.1,5.2c0,1.9-0.8,3.8-2.1,5.2s-3.2,2.1-5.2,2.1
	c-1.9,0-3.8-0.8-5.2-2.1s-2.1-3.2-2.1-5.2c0-1.9,0.8-3.8,2.1-5.2S641.2,571.1,643.2,571.1z"/>
<path class="st9" d="M429.9,384.8c1.9,0,3.8,0.8,5.1,2.1c1.4,1.4,2.1,3.2,2.1,5.1s-0.8,3.8-2.1,5.1c-1.4,1.4-3.2,2.1-5.1,2.1
	s-3.8-0.8-5.1-2.1s-2.1-3.2-2.1-5.1s0.8-3.8,2.1-5.1S428,384.8,429.9,384.8z"/>
<path class="st9" d="M274.6,132.2c1.9,0,3.7,0.8,5.1,2.1c1.3,1.3,2.1,3.2,2.1,5.1c0,1.9-0.8,3.7-2.1,5.1c-1.3,1.3-3.2,2.1-5.1,2.1
	s-3.7-0.8-5.1-2.1c-1.3-1.3-2.1-3.2-2.1-5.1c0-1.9,0.8-3.7,2.1-5.1C270.9,133,272.7,132.2,274.6,132.2z"/>
<path class="st9" d="M84.1,432.5c1.9,0,3.7,0.7,5,2.1c1.3,1.3,2.1,3.1,2.1,5s-0.7,3.7-2.1,5c-1.3,1.3-3.1,2.1-5,2.1s-3.7-0.7-5-2.1
	c-1.3-1.3-2.1-3.1-2.1-5s0.7-3.7,2.1-5C80.4,433.3,82.2,432.5,84.1,432.5z"/>
<path class="st9" d="M294.3,456.4c1.9,0,3.6,0.7,5,2.1c1.3,1.3,2.1,3.1,2.1,5s-0.7,3.6-2.1,5c-1.3,1.3-3.1,2.1-5,2.1s-3.6-0.7-5-2.1
	c-1.3-1.3-2.1-3.1-2.1-5s0.7-3.6,2.1-5C290.6,457.2,292.4,456.4,294.3,456.4z"/>
<path class="st9" d="M498.2,135.6c1.8,0,3.6,0.7,4.9,2s2,3.1,2,4.9c0,1.8-0.7,3.6-2,4.9c-1.3,1.3-3.1,2-4.9,2s-3.6-0.7-4.9-2
	s-2-3.1-2-4.9c0-1.8,0.7-3.6,2-4.9C494.6,136.3,496.4,135.6,498.2,135.6z"/>
<path class="st9" d="M489.9,101.6c1.8,0,3.5,0.7,4.8,2s2,3,2,4.8s-0.7,3.5-2,4.8s-3,2-4.8,2s-3.5-0.7-4.8-2s-2-3-2-4.8
	s0.7-3.5,2-4.8C486.4,102.3,488.1,101.6,489.9,101.6z"/>
<path class="st9" d="M264.2,276.6c1.8,0,3.5,0.7,4.7,2c1.3,1.3,2,3,2,4.7s-0.7,3.5-2,4.7c-1.3,1.3-3,2-4.7,2s-3.5-0.7-4.7-2
	c-1.3-1.3-2-3-2-4.7s0.7-3.5,2-4.7C260.8,277.3,262.5,276.6,264.2,276.6z"/>
<path class="st9" d="M92.4,262c1.8,0,3.5,0.7,4.8,2s2,3,2,4.8s-0.7,3.5-2,4.8s-3,2-4.8,2s-3.5-0.7-4.8-2s-2-3-2-4.8s0.7-3.5,2-4.8
	C88.8,262.7,90.6,262,92.4,262z"/>
<path class="st9" d="M264.2,245.4c1.8,0,3.5,0.7,4.8,2s2,3,2,4.8s-0.7,3.5-2,4.8c-1.3,1.3-3,2-4.8,2s-3.5-0.7-4.8-2
	c-1.3-1.3-2-3-2-4.8s0.7-3.5,2-4.8C260.7,246.1,262.4,245.4,264.2,245.4z"/>
<path class="st9" d="M275.6,225.6c1.8,0,3.6,0.7,4.9,2s2,3.1,2,4.9c0,1.8-0.7,3.6-2,4.9c-1.3,1.3-3.1,2-4.9,2s-3.6-0.7-4.9-2
	s-2-3.1-2-4.9c0-1.8,0.7-3.6,2-4.9C272,226.3,273.8,225.6,275.6,225.6z"/>
<path class="st9" d="M633.8,286.7c1.9,0,3.6,0.7,4.9,2c1.3,1.3,2,3.1,2,4.9c0,1.9-0.7,3.6-2,4.9s-3.1,2-4.9,2s-3.6-0.7-4.9-2
	c-1.3-1.3-2-3.1-2-4.9c0-1.9,0.7-3.6,2-4.9C630.2,287.4,632,286.7,633.8,286.7z"/>
<path class="st9" d="M646.3,626.5c1.8,0,3.5,0.7,4.7,2c1.3,1.3,2,3,2,4.7s-0.7,3.5-2,4.7c-1.3,1.3-3,2-4.7,2c-1.8,0-3.5-0.7-4.7-2
	c-1.3-1.3-2-3-2-4.7s0.7-3.5,2-4.7C642.8,627.2,644.5,626.5,646.3,626.5z"/>
<path class="st9" d="M647.3,606.7c1.8,0,3.5,0.7,4.8,2s2,3,2,4.8s-0.7,3.5-2,4.8s-3,2-4.8,2s-3.5-0.7-4.8-2s-2-3-2-4.8
	s0.7-3.5,2-4.8C643.8,607.5,645.5,606.7,647.3,606.7z"/>
<path class="st9" d="M289.1,221.8c1.8,0,3.5,0.7,4.7,2c1.3,1.3,2,2.9,2,4.7s-0.7,3.5-2,4.7c-1.3,1.3-2.9,2-4.7,2s-3.5-0.7-4.7-2
	c-1.3-1.3-2-2.9-2-4.7s0.7-3.5,2-4.7C285.6,222.5,287.3,221.8,289.1,221.8z"/>
<path class="st9" d="M170,241.6c1.7,0,3.4,0.7,4.6,1.9c1.2,1.2,1.9,2.9,1.9,4.6c0,1.7-0.7,3.4-1.9,4.6c-1.2,1.2-2.9,1.9-4.6,1.9
	c-1.7,0-3.4-0.7-4.6-1.9c-1.2-1.2-1.9-2.9-1.9-4.6c0-1.7,0.7-3.4,1.9-4.6C166.6,242.3,168.3,241.6,170,241.6z"/>
<path class="st9" d="M346,389.8c1.7,0,3.3,0.7,4.5,1.8c1.2,1.2,1.8,2.8,1.8,4.5s-0.7,3.3-1.8,4.5c-1.2,1.2-2.8,1.8-4.5,1.8
	s-3.3-0.7-4.5-1.8c-1.2-1.2-1.8-2.8-1.8-4.5s0.7-3.3,1.8-4.5C342.7,390.5,344.4,389.8,346,389.8z"/>
<path class="st9" d="M404,243.8c1.7,0,3.3,0.7,4.5,1.9s1.9,2.8,1.9,4.5s-0.7,3.3-1.9,4.5c-1.2,1.2-2.8,1.9-4.5,1.9s-3.3-0.7-4.5-1.9
	s-1.9-2.8-1.9-4.5s0.7-3.3,1.9-4.5C400.7,244.5,402.3,243.8,404,243.8z"/>
<path class="st9" d="M131.7,476.7c1.7,0,3.3,0.7,4.5,1.9s1.9,2.8,1.9,4.5s-0.7,3.3-1.9,4.5s-2.8,1.9-4.5,1.9s-3.3-0.7-4.5-1.9
	s-1.9-2.8-1.9-4.5s0.7-3.3,1.9-4.5C128.4,477.4,130,476.7,131.7,476.7z"/>
<path class="st9" d="M324.3,290.3c1.7,0,3.4,0.7,4.6,1.9s1.9,2.9,1.9,4.6s-0.7,3.4-1.9,4.6s-2.9,1.9-4.6,1.9s-3.4-0.7-4.6-1.9
	c-1.2-1.2-1.9-2.9-1.9-4.6s0.7-3.4,1.9-4.6C320.9,291,322.6,290.3,324.3,290.3z"/>
<path class="st9" d="M196.9,323.4c1.7,0,3.4,0.7,4.6,1.9c1.2,1.2,1.9,2.9,1.9,4.6s-0.7,3.4-1.9,4.6s-2.9,1.9-4.6,1.9
	c-1.7,0-3.4-0.7-4.6-1.9c-1.2-1.2-1.9-2.9-1.9-4.6s0.7-3.4,1.9-4.6C193.6,324.1,195.2,323.4,196.9,323.4z"/>
<path class="st9" d="M847.1,784.3c1.7,0,3.3,0.7,4.5,1.9s1.9,2.8,1.9,4.5s-0.7,3.3-1.9,4.5s-2.8,1.9-4.5,1.9s-3.3-0.7-4.5-1.9
	s-1.9-2.8-1.9-4.5s0.7-3.3,1.9-4.5S845.4,784.3,847.1,784.3z"/>
<path class="st9" d="M464.1,217.8c1.7,0,3.4,0.7,4.6,1.9s1.9,2.9,1.9,4.6s-0.7,3.4-1.9,4.6c-1.2,1.2-2.9,1.9-4.6,1.9
	s-3.4-0.7-4.6-1.9s-1.9-2.9-1.9-4.6s0.7-3.4,1.9-4.6C460.7,218.5,462.3,217.8,464.1,217.8z"/>
<path class="st9" d="M782.9,602.9c1.7,0,3.4,0.7,4.6,1.9c1.2,1.2,1.9,2.9,1.9,4.6s-0.7,3.4-1.9,4.6c-1.2,1.2-2.9,1.9-4.6,1.9
	c-1.7,0-3.4-0.7-4.6-1.9c-1.2-1.2-1.9-2.9-1.9-4.6s0.7-3.4,1.9-4.6C779.6,603.6,781.2,602.9,782.9,602.9z"/>
<path class="st9" d="M731.2,683.7c1.7,0,3.4,0.7,4.6,1.9c1.2,1.2,1.9,2.9,1.9,4.6s-0.7,3.4-1.9,4.6c-1.2,1.2-2.9,1.9-4.6,1.9
	s-3.4-0.7-4.6-1.9c-1.2-1.2-1.9-2.9-1.9-4.6s0.7-3.4,1.9-4.6C727.8,684.4,729.5,683.7,731.2,683.7z"/>
<path class="st9" d="M602.8,450.8c1.7,0,3.3,0.7,4.5,1.9c1.2,1.2,1.9,2.8,1.9,4.5s-0.7,3.3-1.9,4.5s-2.8,1.9-4.5,1.9
	s-3.3-0.7-4.5-1.9c-1.2-1.2-1.9-2.8-1.9-4.5s0.7-3.3,1.9-4.5C599.5,451.5,601.1,450.8,602.8,450.8z"/>
<path class="st9" d="M221.8,357.9c1.6,0,3.2,0.6,4.3,1.8c1.2,1.2,1.8,2.7,1.8,4.3c0,1.6-0.6,3.2-1.8,4.3c-1.2,1.2-2.7,1.8-4.3,1.8
	s-3.2-0.6-4.3-1.8c-1.2-1.2-1.8-2.7-1.8-4.3c0-1.6,0.6-3.2,1.8-4.3C218.6,358.6,220.2,357.9,221.8,357.9z"/>
<path class="st9" d="M485.8,411.8c1.9,0,3.7,0.8,5.1,2.1c1.3,1.3,2.1,3.2,2.1,5.1s-0.8,3.7-2.1,5.1c-1.3,1.3-3.2,2.1-5.1,2.1
	s-3.7-0.8-5.1-2.1c-1.3-1.3-2.1-3.2-2.1-5.1s0.8-3.7,2.1-5.1C482.1,412.5,483.9,411.8,485.8,411.8z"/>
<path class="st9" d="M392.6,343.6c1.8,0,3.6,0.7,4.9,2s2,3.1,2,4.9s-0.7,3.6-2,4.9s-3.1,2-4.9,2s-3.6-0.7-4.9-2s-2-3.1-2-4.9
	s0.7-3.6,2-4.9C389,344.4,390.8,343.6,392.6,343.6z"/>
<path class="st9" d="M729.1,642c1.8,0,3.5,0.7,4.8,2s2,3,2,4.8s-0.7,3.5-2,4.8s-3,2-4.8,2s-3.5-0.7-4.8-2s-2-3-2-4.8s0.7-3.5,2-4.8
	S727.3,642,729.1,642z"/>
<path class="st9" d="M779.8,458.7c1.8,0,3.5,0.7,4.8,2s2,3,2,4.8s-0.7,3.5-2,4.8s-3,2-4.8,2s-3.5-0.7-4.8-2s-2-3-2-4.8
	s0.7-3.5,2-4.8C776.3,459.4,778,458.7,779.8,458.7z"/>
<path class="st9" d="M137.9,363.5c1.8,0,3.5,0.7,4.8,2s2,3,2,4.8s-0.7,3.5-2,4.8s-3,2-4.8,2s-3.5-0.7-4.8-2s-2-3-2-4.8
	s0.7-3.5,2-4.8S136.1,363.5,137.9,363.5z"/>
<path class="st9" d="M222.8,299.3c1.8,0,3.5,0.7,4.8,2s2,3,2,4.8s-0.7,3.5-2,4.8s-3,2-4.8,2s-3.5-0.7-4.8-2s-2-3-2-4.8
	s0.7-3.5,2-4.8S221,299.3,222.8,299.3z"/>
<path class="st9" d="M599.7,642.9c1.8,0,3.6,0.7,4.9,2c1.3,1.3,2,3.1,2,4.9c0,1.8-0.7,3.6-2,4.9c-1.3,1.3-3.1,2-4.9,2
	c-1.8,0-3.6-0.7-4.9-2s-2-3.1-2-4.9c0-1.8,0.7-3.6,2-4.9S597.9,642.9,599.7,642.9z"/>
<path class="st9" d="M598.6,465.9c1.8,0,3.6,0.7,4.9,2c1.3,1.3,2,3,2,4.9c0,1.8-0.7,3.6-2,4.9s-3,2-4.9,2c-1.8,0-3.6-0.7-4.9-2
	c-1.3-1.3-2-3-2-4.9c0-1.8,0.7-3.6,2-4.9C595.1,466.6,596.8,465.9,598.6,465.9z"/>
<path class="st9" d="M473.4,228.9c1.8,0,3.5,0.7,4.8,2s2,3,2,4.8s-0.7,3.5-2,4.8s-3,2-4.8,2s-3.5-0.7-4.8-2s-2-3-2-4.8
	s0.7-3.5,2-4.8C469.8,229.6,471.6,228.9,473.4,228.9z"/>
<path class="st9" d="M324.3,162.6c1.8,0,3.5,0.7,4.8,2s2,3,2,4.8s-0.7,3.5-2,4.8s-3,2-4.8,2s-3.5-0.7-4.8-2s-2-3-2-4.8
	s0.7-3.5,2-4.8C320.7,163.3,322.5,162.6,324.3,162.6z"/>
<path class="st9" d="M556.2,278.4c1.9,0,3.6,0.7,4.9,2c1.3,1.3,2,3.1,2,4.9c0,1.9-0.7,3.6-2,4.9s-3.1,2-4.9,2s-3.6-0.7-4.9-2
	c-1.3-1.3-2-3.1-2-4.9c0-1.9,0.7-3.6,2-4.9S554.3,278.4,556.2,278.4z"/>
<path class="st9" d="M191.8,310.7c1.8,0,3.5,0.7,4.8,2s2,3,2,4.8s-0.7,3.5-2,4.8s-3,2-4.8,2s-3.5-0.7-4.8-2s-2-3-2-4.8
	s0.7-3.5,2-4.8C188.2,311.4,190,310.7,191.8,310.7z"/>
<path class="st9" d="M559.3,534.5c1.7,0,3.4,0.7,4.7,1.9c1.2,1.2,1.9,2.9,1.9,4.7s-0.7,3.4-1.9,4.7c-1.2,1.2-2.9,1.9-4.7,1.9
	s-3.4-0.7-4.7-1.9c-1.2-1.2-1.9-2.9-1.9-4.7s0.7-3.4,1.9-4.7C555.9,535.2,557.6,534.5,559.3,534.5z"/>
<path class="st9" d="M682.5,537.7c1.7,0,3.4,0.7,4.6,1.9c1.2,1.2,1.9,2.9,1.9,4.6s-0.7,3.4-1.9,4.6c-1.2,1.2-2.9,1.9-4.6,1.9
	c-1.7,0-3.4-0.7-4.6-1.9c-1.2-1.2-1.9-2.9-1.9-4.6s0.7-3.4,1.9-4.6C679.1,538.4,680.8,537.7,682.5,537.7z"/>
<path class="st9" d="M719.8,565.6c1.7,0,3.4,0.7,4.6,1.9c1.2,1.2,1.9,2.9,1.9,4.6s-0.7,3.4-1.9,4.6c-1.2,1.2-2.9,1.9-4.6,1.9
	c-1.7,0-3.4-0.7-4.6-1.9c-1.2-1.2-1.9-2.9-1.9-4.6s0.7-3.4,1.9-4.6C716.4,566.3,718,565.6,719.8,565.6z"/>
<path class="st9" d="M425.7,493.3c1.7,0,3.3,0.7,4.5,1.9c1.2,1.2,1.9,2.8,1.9,4.5s-0.7,3.3-1.9,4.5c-1.2,1.2-2.8,1.9-4.5,1.9
	s-3.3-0.7-4.5-1.9c-1.2-1.2-1.9-2.8-1.9-4.5s0.7-3.3,1.9-4.5C422.5,494,424.1,493.3,425.7,493.3z"/>
<path class="st9" d="M283.9,446.7c1.7,0,3.3,0.7,4.5,1.9c1.2,1.2,1.9,2.8,1.9,4.5s-0.7,3.3-1.9,4.5c-1.2,1.2-2.8,1.9-4.5,1.9
	s-3.3-0.7-4.5-1.9c-1.2-1.2-1.9-2.8-1.9-4.5s0.7-3.3,1.9-4.5C280.6,447.4,282.2,446.7,283.9,446.7z"/>
<path class="st9" d="M696,530.7c1.7,0,3.3,0.7,4.4,1.8c1.2,1.2,1.8,2.8,1.8,4.4s-0.7,3.3-1.8,4.4c-1.2,1.2-2.8,1.8-4.4,1.8
	c-1.7,0-3.3-0.7-4.4-1.8c-1.2-1.2-1.8-2.8-1.8-4.4s0.7-3.3,1.8-4.4C692.7,531.4,694.3,530.7,696,530.7z"/>
<path class="st9" d="M697,455.2c1.6,0,3.2,0.7,4.4,1.8c1.2,1.2,1.8,2.7,1.8,4.4s-0.7,3.2-1.8,4.4c-1.2,1.2-2.7,1.8-4.4,1.8
	c-1.6,0-3.2-0.7-4.4-1.8c-1.2-1.2-1.8-2.7-1.8-4.4s0.7-3.2,1.8-4.4C693.8,455.8,695.4,455.2,697,455.2z"/>
<path class="st9" d="M185.6,246.2c1.9,0,3.7,0.7,5,2.1c1.3,1.3,2.1,3.1,2.1,5s-0.7,3.7-2.1,5c-1.3,1.3-3.1,2.1-5,2.1s-3.7-0.7-5-2.1
	c-1.3-1.3-2.1-3.1-2.1-5s0.7-3.7,2.1-5C181.9,247,183.7,246.2,185.6,246.2z"/>
<path class="st9" d="M374,181.1c1.8,0,3.6,0.7,4.9,2s2,3.1,2,4.9c0,1.8-0.7,3.6-2,4.9c-1.3,1.3-3.1,2-4.9,2s-3.6-0.7-4.9-2
	s-2-3.1-2-4.9c0-1.8,0.7-3.6,2-4.9C370.4,181.8,372.1,181.1,374,181.1z"/>
<path class="st9" d="M288,154.3c1.8,0,3.5,0.7,4.8,2s2,3,2,4.8s-0.7,3.5-2,4.8s-3,2-4.8,2s-3.5-0.7-4.8-2s-2-3-2-4.8s0.7-3.5,2-4.8
	S286.2,154.3,288,154.3z"/>
<path class="st9" d="M697,353.9c1.9,0,3.6,0.7,5,2.1c1.3,1.3,2.1,3.1,2.1,5s-0.7,3.6-2.1,5c-1.3,1.3-3.1,2.1-5,2.1s-3.6-0.7-5-2.1
	c-1.3-1.3-2.1-3.1-2.1-5s0.7-3.6,2.1-5C693.4,354.7,695.1,353.9,697,353.9z"/>
<path class="st9" d="M566.6,472c1.8,0,3.6,0.7,4.9,2c1.3,1.3,2,3.1,2,4.9s-0.7,3.6-2,4.9s-3.1,2-4.9,2c-1.8,0-3.6-0.7-4.9-2
	c-1.3-1.3-2-3.1-2-4.9s0.7-3.6,2-4.9S564.7,472,566.6,472z"/>
<path class="st9" d="M114.1,400.7c1.8,0,3.5,0.7,4.8,2s2,3,2,4.8s-0.7,3.5-2,4.8s-3,2-4.8,2s-3.5-0.7-4.8-2s-2-3-2-4.8
	s0.7-3.5,2-4.8C110.6,401.4,112.3,400.7,114.1,400.7z"/>
<path class="st9" d="M176.2,289.8c1.8,0,3.6,0.7,4.9,2c1.3,1.3,2,3.1,2,4.9s-0.7,3.6-2,4.9s-3.1,2-4.9,2s-3.6-0.7-4.9-2
	c-1.3-1.3-2-3.1-2-4.9s0.7-3.6,2-4.9C172.6,290.6,174.4,289.8,176.2,289.8z"/>
<path class="st9" d="M350.2,110c1.8,0,3.4,0.7,4.7,1.9c1.2,1.2,1.9,2.9,1.9,4.7c0,1.8-0.7,3.4-1.9,4.7c-1.2,1.2-2.9,1.9-4.7,1.9
	c-1.8,0-3.4-0.7-4.7-1.9c-1.2-1.2-1.9-2.9-1.9-4.7c0-1.8,0.7-3.4,1.9-4.7C346.7,110.7,348.4,110,350.2,110z"/>
<path class="st9" d="M405,350.3c1.7,0,3.4,0.7,4.6,1.9c1.2,1.2,1.9,2.9,1.9,4.6s-0.7,3.4-1.9,4.6c-1.2,1.2-2.9,1.9-4.6,1.9
	s-3.4-0.7-4.6-1.9c-1.2-1.2-1.9-2.9-1.9-4.6s0.7-3.4,1.9-4.6C401.7,351,403.3,350.3,405,350.3z"/>
<path class="st9" d="M511.7,479.5c1.8,0,3.5,0.7,4.7,2c1.3,1.3,2,3,2,4.7c0,1.8-0.7,3.5-2,4.7c-1.3,1.3-3,2-4.7,2s-3.5-0.7-4.7-2
	c-1.3-1.3-2-3-2-4.7c0-1.8,0.7-3.5,2-4.7C508.2,480.3,509.9,479.5,511.7,479.5z"/>
<path class="st9" d="M571.7,605.9c1.8,0,3.4,0.7,4.7,1.9c1.2,1.2,1.9,2.9,1.9,4.7s-0.7,3.4-1.9,4.7c-1.2,1.2-2.9,1.9-4.7,1.9
	s-3.4-0.7-4.7-1.9c-1.2-1.2-1.9-2.9-1.9-4.7s0.7-3.4,1.9-4.7C568.3,606.6,570,605.9,571.7,605.9z"/>
<path class="st9" d="M866.8,786.1c1.7,0,3.4,0.7,4.7,1.9c1.2,1.2,1.9,2.9,1.9,4.7s-0.7,3.4-1.9,4.7c-1.2,1.2-2.9,1.9-4.7,1.9
	c-1.7,0-3.4-0.7-4.7-1.9c-1.2-1.2-1.9-2.9-1.9-4.7s0.7-3.4,1.9-4.7C863.4,786.8,865.1,786.1,866.8,786.1z"/>
<path class="st9" d="M281.8,382.5c1.7,0,3.3,0.7,4.5,1.9c1.2,1.2,1.9,2.8,1.9,4.5s-0.7,3.3-1.9,4.5c-1.2,1.2-2.8,1.9-4.5,1.9
	s-3.3-0.7-4.5-1.9c-1.2-1.2-1.9-2.8-1.9-4.5s0.7-3.3,1.9-4.5C278.5,383.2,280.1,382.5,281.8,382.5z"/>
<path class="st9" d="M220.8,374.2c1.7,0,3.4,0.7,4.6,1.9c1.2,1.2,1.9,2.9,1.9,4.6s-0.7,3.4-1.9,4.6s-2.9,1.9-4.6,1.9
	s-3.4-0.7-4.6-1.9s-1.9-2.9-1.9-4.6s0.7-3.4,1.9-4.6C217.4,374.8,219,374.2,220.8,374.2z"/>
<path class="st9" d="M171.1,144.4c1.7,0,3.3,0.7,4.5,1.9s1.9,2.8,1.9,4.5s-0.7,3.3-1.9,4.5s-2.8,1.9-4.5,1.9s-3.3-0.7-4.5-1.9
	s-1.9-2.8-1.9-4.5s0.7-3.3,1.9-4.5C167.7,145,169.4,144.4,171.1,144.4z"/>
<path class="st9" d="M772.6,734.3c1.8,0,3.5,0.7,4.7,2c1.2,1.2,2,2.9,2,4.7s-0.7,3.5-2,4.7c-1.2,1.2-2.9,2-4.7,2s-3.5-0.7-4.7-2
	c-1.2-1.2-2-2.9-2-4.7s0.7-3.5,2-4.7C769.1,735,770.8,734.3,772.6,734.3z"/>
<path class="st9" d="M663.9,263.3c1.7,0,3.4,0.7,4.6,1.9c1.2,1.2,1.9,2.9,1.9,4.6s-0.7,3.4-1.9,4.6s-2.9,1.9-4.6,1.9
	c-1.7,0-3.4-0.7-4.6-1.9c-1.2-1.2-1.9-2.9-1.9-4.6s0.7-3.4,1.9-4.6C660.5,264,662.1,263.3,663.9,263.3z"/>
<path class="st9" d="M443.3,381.5c1.7,0,3.3,0.7,4.5,1.9c1.2,1.2,1.9,2.8,1.9,4.5s-0.7,3.3-1.9,4.5c-1.2,1.2-2.8,1.9-4.5,1.9
	s-3.3-0.7-4.5-1.9c-1.2-1.2-1.9-2.8-1.9-4.5s0.7-3.3,1.9-4.5C440,382.1,441.7,381.5,443.3,381.5z"/>
<path class="st9" d="M442.3,282.9c1.8,0,3.5,0.7,4.7,2c1.2,1.2,2,2.9,2,4.7c0,1.8-0.7,3.5-2,4.7c-1.2,1.2-2.9,2-4.7,2
	c-1.8,0-3.5-0.7-4.7-2s-2-2.9-2-4.7c0-1.8,0.7-3.5,2-4.7S440.5,282.9,442.3,282.9z"/>
<path class="st9" d="M489.9,426.9c1.7,0,3.4,0.7,4.6,1.9c1.2,1.2,1.9,2.9,1.9,4.6s-0.7,3.4-1.9,4.6c-1.2,1.2-2.9,1.9-4.6,1.9
	s-3.4-0.7-4.6-1.9c-1.2-1.2-1.9-2.9-1.9-4.6s0.7-3.4,1.9-4.6C486.5,427.6,488.2,426.9,489.9,426.9z"/>
<path class="st9" d="M525.1,566.7c1.7,0,3.4,0.7,4.6,1.9c1.2,1.2,1.9,2.9,1.9,4.6c0,1.7-0.7,3.4-1.9,4.6c-1.2,1.2-2.9,1.9-4.6,1.9
	c-1.7,0-3.4-0.7-4.6-1.9s-1.9-2.9-1.9-4.6c0-1.7,0.7-3.4,1.9-4.6S523.4,566.7,525.1,566.7z"/>
<path class="st9" d="M558.3,418.7c1.7,0,3.4,0.7,4.6,1.9c1.2,1.2,1.9,2.9,1.9,4.6s-0.7,3.4-1.9,4.6s-2.9,1.9-4.6,1.9
	s-3.4-0.7-4.6-1.9c-1.2-1.2-1.9-2.9-1.9-4.6s0.7-3.4,1.9-4.6S556.6,418.7,558.3,418.7z"/>
<path class="st9" d="M114.1,227c1.7,0,3.4,0.7,4.6,1.9s1.9,2.9,1.9,4.6s-0.7,3.4-1.9,4.6c-1.2,1.2-2.9,1.9-4.6,1.9s-3.4-0.7-4.6-1.9
	s-1.9-2.9-1.9-4.6s0.7-3.4,1.9-4.6C110.7,227.7,112.4,227,114.1,227z"/>
<path class="st9" d="M325.3,346.4c1.7,0,3.3,0.7,4.4,1.8c1.2,1.2,1.8,2.8,1.8,4.4c0,1.7-0.7,3.3-1.8,4.4s-2.8,1.8-4.4,1.8
	c-1.7,0-3.3-0.7-4.4-1.8c-1.2-1.2-1.8-2.8-1.8-4.4c0-1.7,0.7-3.3,1.8-4.4C322.1,347.1,323.7,346.4,325.3,346.4z"/>
<path class="st9" d="M400.9,226.3c1.7,0,3.3,0.7,4.5,1.8c1.2,1.2,1.8,2.8,1.8,4.5s-0.7,3.3-1.8,4.5c-1.2,1.2-2.8,1.8-4.5,1.8
	s-3.3-0.7-4.5-1.8c-1.2-1.2-1.8-2.8-1.8-4.5s0.7-3.3,1.8-4.5C397.6,226.9,399.2,226.3,400.9,226.3z"/>
<path class="st9" d="M352.2,571.1c1.7,0,3.2,0.7,4.4,1.8c1.2,1.2,1.8,2.8,1.8,4.4c0,1.7-0.7,3.2-1.8,4.4c-1.2,1.2-2.8,1.8-4.4,1.8
	c-1.7,0-3.2-0.7-4.4-1.8c-1.2-1.2-1.8-2.8-1.8-4.4c0-1.7,0.7-3.2,1.8-4.4C349,571.8,350.6,571.1,352.2,571.1z"/>
<path class="st9" d="M442.3,169.6c1.6,0,3.1,0.6,4.3,1.8c1.1,1.1,1.8,2.7,1.8,4.3s-0.6,3.1-1.8,4.3c-1.1,1.1-2.7,1.8-4.3,1.8
	s-3.1-0.6-4.3-1.8c-1.1-1.1-1.8-2.7-1.8-4.3s0.6-3.1,1.8-4.3C439.2,170.2,440.7,169.6,442.3,169.6z"/>
<path class="st9" d="M415.4,274.5c1.8,0,3.5,0.7,4.7,2c1.3,1.3,2,3,2,4.7c0,1.8-0.7,3.5-2,4.7c-1.3,1.3-3,2-4.7,2
	c-1.8,0-3.5-0.7-4.7-2c-1.3-1.3-2-3-2-4.7c0-1.8,0.7-3.5,2-4.7C411.9,275.3,413.6,274.5,415.4,274.5z"/>
<path class="st9" d="M67.5,372.8c1.8,0,3.5,0.7,4.8,2s2,3,2,4.8s-0.7,3.5-2,4.8s-3,2-4.8,2s-3.5-0.7-4.8-2s-2-3-2-4.8s0.7-3.5,2-4.8
	S65.7,372.8,67.5,372.8z"/>
<path class="st9" d="M486.8,273.6c1.7,0,3.4,0.7,4.6,1.9c1.2,1.2,1.9,2.9,1.9,4.6s-0.7,3.4-1.9,4.6c-1.2,1.2-2.9,1.9-4.6,1.9
	s-3.4-0.7-4.6-1.9c-1.2-1.2-1.9-2.9-1.9-4.6s0.7-3.4,1.9-4.6C483.4,274.3,485.1,273.6,486.8,273.6z"/>
<path class="st9" d="M785,521.1c1.7,0,3.4,0.7,4.6,1.9c1.2,1.2,1.9,2.9,1.9,4.6c0,1.7-0.7,3.4-1.9,4.6c-1.2,1.2-2.9,1.9-4.6,1.9
	c-1.7,0-3.4-0.7-4.6-1.9c-1.2-1.2-1.9-2.9-1.9-4.6c0-1.7,0.7-3.4,1.9-4.6C781.6,521.8,783.3,521.1,785,521.1z"/>
<path class="st9" d="M830.6,702.4c1.7,0,3.3,0.7,4.6,1.9c1.2,1.2,1.9,2.8,1.9,4.6s-0.7,3.3-1.9,4.6c-1.2,1.2-2.8,1.9-4.6,1.9
	c-1.7,0-3.3-0.7-4.6-1.9c-1.2-1.2-1.9-2.8-1.9-4.6s0.7-3.3,1.9-4.6C827.2,703.1,828.8,702.4,830.6,702.4z"/>
<path class="st9" d="M127.6,355.6c1.7,0,3.3,0.7,4.5,1.9c1.2,1.2,1.9,2.8,1.9,4.5s-0.7,3.3-1.9,4.5s-2.8,1.9-4.5,1.9
	s-3.3-0.7-4.5-1.9s-1.9-2.8-1.9-4.5s0.7-3.3,1.9-4.5C124.2,356.3,125.9,355.6,127.6,355.6z"/>
<path class="st9" d="M470.3,266.7c1.7,0,3.2,0.7,4.4,1.8c1.2,1.2,1.8,2.8,1.8,4.4c0,1.7-0.7,3.2-1.8,4.4c-1.2,1.2-2.8,1.8-4.4,1.8
	s-3.2-0.7-4.4-1.8c-1.2-1.2-1.8-2.8-1.8-4.4c0-1.7,0.7-3.2,1.8-4.4C467,267.4,468.6,266.7,470.3,266.7z"/>
<path class="st9" d="M142.1,282.2c1.7,0,3.2,0.7,4.4,1.8c1.2,1.2,1.8,2.8,1.8,4.4c0,1.7-0.7,3.2-1.8,4.4c-1.2,1.2-2.8,1.8-4.4,1.8
	c-1.7,0-3.2-0.7-4.4-1.8c-1.2-1.2-1.8-2.8-1.8-4.4c0-1.7,0.7-3.2,1.8-4.4C138.8,282.9,140.4,282.2,142.1,282.2z"/>
<path class="st9" d="M344,461.3c1.7,0,3.3,0.7,4.4,1.8c1.2,1.2,1.8,2.8,1.8,4.4c0,1.7-0.7,3.3-1.8,4.4c-1.2,1.2-2.8,1.8-4.4,1.8
	c-1.7,0-3.3-0.7-4.4-1.8c-1.2-1.2-1.8-2.8-1.8-4.4c0-1.7,0.7-3.3,1.8-4.4C340.7,462,342.3,461.3,344,461.3z"/>
<path class="st9" d="M659.7,410.6c1.6,0,3.2,0.7,4.4,1.8c1.2,1.2,1.8,2.7,1.8,4.4s-0.7,3.2-1.8,4.4s-2.7,1.8-4.4,1.8
	c-1.6,0-3.2-0.7-4.4-1.8s-1.8-2.7-1.8-4.4s0.7-3.2,1.8-4.4C656.5,411.3,658.1,410.6,659.7,410.6z"/>
<path class="st9" d="M495.1,114.5c1.7,0,3.2,0.7,4.4,1.8c1.2,1.2,1.8,2.8,1.8,4.4s-0.7,3.2-1.8,4.4c-1.2,1.2-2.8,1.8-4.4,1.8
	c-1.7,0-3.2-0.7-4.4-1.8c-1.2-1.2-1.8-2.8-1.8-4.4s0.7-3.2,1.8-4.4C491.9,115.2,493.5,114.5,495.1,114.5z"/>
<path class="st9" d="M790.2,590.8c1.6,0,3.2,0.7,4.4,1.8c1.2,1.2,1.8,2.7,1.8,4.4c0,1.6-0.7,3.2-1.8,4.4c-1.2,1.2-2.7,1.8-4.4,1.8
	s-3.2-0.7-4.4-1.8c-1.2-1.2-1.8-2.7-1.8-4.4c0-1.6,0.7-3.2,1.8-4.4C787,591.4,788.5,590.8,790.2,590.8z"/>
<path class="st9" d="M217.6,276c1.7,0,3.3,0.7,4.4,1.8c1.2,1.2,1.8,2.8,1.8,4.4s-0.7,3.3-1.8,4.4c-1.2,1.2-2.8,1.8-4.4,1.8
	c-1.7,0-3.3-0.7-4.4-1.8c-1.2-1.2-1.8-2.8-1.8-4.4s0.7-3.3,1.8-4.4C214.4,276.7,216,276,217.6,276z"/>
<path class="st9" d="M172.1,364.9c1.7,0,3.3,0.7,4.5,1.9c1.2,1.2,1.9,2.8,1.9,4.5s-0.7,3.3-1.9,4.5s-2.8,1.9-4.5,1.9
	s-3.3-0.7-4.5-1.9s-1.9-2.8-1.9-4.5s0.7-3.3,1.9-4.5C168.8,365.6,170.4,364.9,172.1,364.9z"/>
<path class="st9" d="M342.9,152.7c1.7,0,3.3,0.7,4.5,1.9s1.9,2.8,1.9,4.5s-0.7,3.3-1.9,4.5c-1.2,1.2-2.8,1.9-4.5,1.9
	s-3.3-0.7-4.5-1.9s-1.9-2.8-1.9-4.5s0.7-3.3,1.9-4.5C339.6,153.4,341.2,152.7,342.9,152.7z"/>
<path class="st9" d="M577.9,624.7c1.7,0,3.4,0.7,4.6,1.9s1.9,2.9,1.9,4.6s-0.7,3.4-1.9,4.6c-1.2,1.2-2.9,1.9-4.6,1.9
	s-3.4-0.7-4.6-1.9c-1.2-1.2-1.9-2.9-1.9-4.6s0.7-3.4,1.9-4.6C574.6,625.4,576.2,624.7,577.9,624.7z"/>
<path class="st9" d="M236.3,505.6c1.7,0,3.4,0.7,4.6,1.9c1.2,1.2,1.9,2.9,1.9,4.6c0,1.7-0.7,3.4-1.9,4.6c-1.2,1.2-2.9,1.9-4.6,1.9
	c-1.7,0-3.4-0.7-4.6-1.9c-1.2-1.2-1.9-2.9-1.9-4.6c0-1.7,0.7-3.4,1.9-4.6C232.9,506.3,234.6,505.6,236.3,505.6z"/>
<g>
	<g id="XMLID_3_">
		<g>
			<g>
				<g id="XMLID_2_">
					<g>
						<polygon class="st10" points="962.6,751.2 962.6,789.2 664.2,909.8 664.2,695.2 962.3,575.4 962.6,575.4 						"/>
					</g>
					<g>
						<polyline class="st1" points="664.2,695.2 664.2,909.8 664.2,910.2 664.2,912.4 						"/>
						<polyline class="st1" points="962.6,789.2 962.6,751.2 962.6,575.4 						"/>
						<polyline class="st1" points="657.8,912.4 664.2,909.8 962.6,789.2 						"/>
						<line class="st1" x1="664.2" y1="695.2" x2="962.3" y2="575.4"/>
					</g>
				</g>
			</g>
		</g>
	</g>
</g>
</svg>
